<svg xmlns="http://www.w3.org/2000/svg"  viewBox="0 0 64 64" width="100px" height="100px"><linearGradient id="nv8VYz6Mc3bAK9PAhrpuka" x1="32" x2="32" y1="55.422" y2="32.52" gradientTransform="matrix(1 0 0 -1 0 64)" gradientUnits="userSpaceOnUse"><stop offset="0" stop-color="#6dc7ff"/><stop offset="1" stop-color="#e6abff"/></linearGradient><path fill="url(#nv8VYz6Mc3bAK9PAhrpuka)" d="M32,32c-3.309,0-6-2.691-6-6V15c0-3.309,2.691-6,6-6s6,2.691,6,6v11	C38,29.309,35.309,32,32,32z"/><linearGradient id="nv8VYz6Mc3bAK9PAhrpukb" x1="32" x2="32" y1="56.916" y2="4.626" gradientTransform="matrix(1 0 0 -1 0 64)" gradientUnits="userSpaceOnUse"><stop offset="0" stop-color="#1a6dff"/><stop offset="1" stop-color="#c822ff"/></linearGradient><path fill="url(#nv8VYz6Mc3bAK9PAhrpukb)" d="M32.005,58c-2.353,0-4.569-0.929-6.241-2.615c-1.662-1.701-2.575-3.942-2.575-6.316V46.91	c0-4.915-1.276-9.758-3.691-14.004c-2.422-4.247-5.912-7.789-10.094-10.241c-2.034-1.191-3.49-3.118-4.1-5.424	c-0.608-2.304-0.298-4.708,0.874-6.769C7.744,7.713,10.675,6,13.825,6c1.541,0,3.063,0.415,4.401,1.199l5.28,3.092	c0.307,0.179,0.495,0.508,0.495,0.863v14.822c0,4.486,3.588,8.136,7.999,8.136s8-3.651,8-8.136V11.153	c0-0.355,0.188-0.684,0.495-0.863l5.28-3.09c1.337-0.784,2.859-1.198,4.4-1.198c3.151,0,6.083,1.713,7.648,4.471	C58.593,11.817,59,13.36,59,14.933c0,3.183-1.687,6.146-4.401,7.733c-8.502,4.98-13.784,14.27-13.784,24.244v1.848	c0,4.841-3.595,8.891-8.184,9.22C32.423,57.992,32.214,58,32.005,58z M13.825,8c-2.433,0-4.696,1.326-5.909,3.46	c-0.911,1.604-1.152,3.476-0.679,5.27c0.474,1.792,1.602,3.286,3.177,4.209c4.484,2.629,8.226,6.425,10.821,10.977	c2.586,4.548,3.953,9.732,3.953,14.993v2.159c0,1.849,0.71,3.594,2,4.913c1.403,1.415,3.313,2.148,5.298,2.001	c3.549-0.255,6.328-3.429,6.328-7.226v-1.848c0-10.681,5.661-20.631,14.773-25.97C55.693,19.709,57,17.408,57,14.933	c0-1.225-0.315-2.425-0.913-3.47c-1.213-2.136-3.478-3.461-5.911-3.461c-1.187,0-2.358,0.32-3.39,0.924L42,11.727v14.249	c0,5.589-4.485,10.136-9.999,10.136s-9.999-4.547-9.999-10.136V11.727l-4.786-2.802C16.184,8.32,15.012,8,13.825,8z"/></svg>