<svg xmlns="http://www.w3.org/2000/svg"  viewBox="0 0 64 64" width="100px" height="100px"><linearGradient id="Vxv7gCPVEw~_aM1Kz46BMa" x1="32" x2="32" y1="10" y2="58" gradientUnits="userSpaceOnUse"><stop offset="0" stop-color="#1a6dff"/><stop offset="1" stop-color="#c822ff"/></linearGradient><path fill="url(#Vxv7gCPVEw~_aM1Kz46BMa)" d="M53,58c-0.223,0-0.444-0.075-0.625-0.219l-7.477-5.981c0.057,0.277-0.006,0.566-0.176,0.795 C44.534,52.85,44.236,53,43.919,53H16.676C12.995,53,10,50.005,10,46.324V16.676C10,12.995,12.995,10,16.676,10h30.648 C51.005,10,54,12.995,54,16.676V57c0,0.384-0.221,0.735-0.566,0.901C53.296,57.967,53.147,58,53,58z M43,48 c0.222,0,0.442,0.074,0.625,0.219l8.375,6.7V16.676C52,14.098,49.902,12,47.324,12H16.676C14.098,12,12,14.098,12,16.676v29.648 C12,48.902,14.098,51,16.676,51h25.891l-0.522-1.707c-0.129-0.419,0.031-0.874,0.395-1.12C42.608,48.057,42.805,48,43,48z"/><linearGradient id="Vxv7gCPVEw~_aM1Kz46BMb" x1="32" x2="32" y1="41.512" y2="21.352" gradientUnits="userSpaceOnUse"><stop offset="0" stop-color="#e6abff"/><stop offset="1" stop-color="#6dc7ff"/></linearGradient><path fill="url(#Vxv7gCPVEw~_aM1Kz46BMb)" d="M42.181,23.861c0,0-2.912-2.251-6.362-2.509l-0.302,0.616c3.114,0.75,4.536,1.837,6.026,3.17 c-2.565-1.31-5.107-2.666-9.542-2.666s-6.978,1.355-9.542,2.666c1.49-1.333,3.192-2.542,6.026-3.17l-0.302-0.616 c-3.618,0.347-6.362,2.509-6.362,2.509S18.56,28.554,18,37.727c3.293,3.763,8.277,3.786,8.277,3.786l1.03-1.378 c-1.758-0.605-3.763-1.691-5.488-3.662c2.061,1.546,5.163,2.8,10.181,2.8s8.12-1.254,10.181-2.8 c-1.725,1.971-3.73,3.058-5.488,3.662l1.03,1.378c0,0,4.984-0.022,8.277-3.786C45.44,28.554,42.181,23.861,42.181,23.861z M28.08,35.912c-1.232,0-2.24-1.254-2.24-2.8c0-1.546,1.008-2.8,2.24-2.8s2.24,1.254,2.24,2.8 C30.32,34.658,29.312,35.912,28.08,35.912z M35.92,35.912c-1.232,0-2.24-1.254-2.24-2.8c0-1.546,1.008-2.8,2.24-2.8 c1.232,0,2.24,1.254,2.24,2.8C38.16,34.658,37.152,35.912,35.92,35.912z"/></svg>