<svg xmlns="http://www.w3.org/2000/svg"  viewBox="0 0 64 64" width="100px" height="100px"><linearGradient id="z0hUpC2qNvqkeWP6NJumua" x1="32" x2="32" y1="13.251" y2="46.211" gradientUnits="userSpaceOnUse"><stop offset="0" stop-color="#1a6dff"/><stop offset="1" stop-color="#c822ff"/></linearGradient><path fill="url(#z0hUpC2qNvqkeWP6NJumua)" d="M63.882,13.528C63.708,13.203,63.369,13,63,13h-7c-0.42,0-0.795,0.263-0.939,0.657	l-1.592,4.361l-1.525-4.35C51.803,13.268,51.425,13,51,13H16c-0.552,0-1,0.448-1,1v0.586l-1.293-1.293C13.52,13.105,13.265,13,13,13	H1c-0.369,0-0.708,0.203-0.882,0.528c-0.174,0.325-0.155,0.72,0.05,1.026L2,17.303V47c0,0.389,0.226,0.743,0.579,0.907	C2.714,47.97,2.857,48,3,48c0.232,0,0.462-0.081,0.646-0.237L16.071,37.25l8.374,5.583c0.336,0.224,0.773,0.224,1.109,0L31,39.202	l5.445,3.63c0.336,0.224,0.773,0.224,1.109,0l8.392-5.594l4.429,3.543c0.3,0.24,0.711,0.285,1.058,0.121	C51.78,40.735,52,40.384,52,40v-3.506l0.658,1.056c0.183,0.293,0.503,0.471,0.849,0.471c0.357-0.02,0.667-0.179,0.85-0.473L55,36.51	V43c0,0.304,0.138,0.591,0.375,0.781l5,4c0.299,0.24,0.711,0.286,1.058,0.121C61.78,47.735,62,47.384,62,47V17.303l1.832-2.748	C64.037,14.248,64.056,13.854,63.882,13.528z M3.832,16.445L2.869,15h9.717L15,17.414v18.122L4,44.844V17	C4,16.803,3.941,16.609,3.832,16.445z M25,40.798l-8-5.333V17v-1v-1h13v22.465L25,40.798z M37,40.798l-5-3.333V15h13v20.465	L37,40.798z M60.168,16.445C60.059,16.609,60,16.803,60,17v27.919l-3-2.4V33c0-0.447-0.296-0.839-0.726-0.962	c-0.432-0.123-0.889,0.056-1.124,0.435l-1.646,2.654l-1.656-2.656c-0.236-0.377-0.692-0.553-1.124-0.432	C50.296,32.162,50,32.554,50,33v4.919l-3-2.4V15h3.291l2.215,6.318c0.14,0.398,0.515,0.666,0.938,0.669c0.002,0,0.004,0,0.006,0	c0.42,0,0.795-0.262,0.939-0.657L56.7,15h4.432L60.168,16.445z"/><linearGradient id="z0hUpC2qNvqkeWP6NJumub" x1="9.5" x2="9.5" y1="20.524" y2="34.35" gradientUnits="userSpaceOnUse"><stop offset="0" stop-color="#6dc7ff"/><stop offset="1" stop-color="#e6abff"/></linearGradient><polygon fill="url(#z0hUpC2qNvqkeWP6NJumub)" points="7,35 12,32 12,20 7,20"/><linearGradient id="z0hUpC2qNvqkeWP6NJumuc" x1="38.5" x2="38.5" y1="20.597" y2="34.822" gradientUnits="userSpaceOnUse"><stop offset="0" stop-color="#6dc7ff"/><stop offset="1" stop-color="#e6abff"/></linearGradient><polygon fill="url(#z0hUpC2qNvqkeWP6NJumuc)" points="36,20 36,35 41,32 41,20"/><linearGradient id="z0hUpC2qNvqkeWP6NJumud" x1="23.5" x2="23.5" y1="21.402" y2="34.09" gradientUnits="userSpaceOnUse"><stop offset="0" stop-color="#6dc7ff"/><stop offset="1" stop-color="#e6abff"/></linearGradient><polygon fill="url(#z0hUpC2qNvqkeWP6NJumud)" points="21,32 26,35 26,20 21,20"/></svg>