<svg xmlns="http://www.w3.org/2000/svg"  viewBox="0 0 64 64" width="100px" height="100px"><linearGradient id="o3mEzuWF~zlvl~vPMuVXDa" x1="32" x2="32" y1="7.381" y2="56.576" gradientUnits="userSpaceOnUse"><stop offset="0" stop-color="#1a6dff"/><stop offset="1" stop-color="#c822ff"/></linearGradient><path fill="url(#o3mEzuWF~zlvl~vPMuVXDa)" fill-rule="evenodd" d="M48.366,8v2C50.458,10,51,10.535,51,12.601v31.744 c0,0.261-0.011,0.503-0.033,0.726l-0.016,0.152c-0.044,0.446-0.069,0.702-0.323,1.021c-0.102,0.083-0.296,0.227-0.401,0.305 l-0.079,0.039c-0.196,0.096-0.361,0.177-0.618,0.28l-16.176,6.706c-0.784,0.356-0.996,0.432-1.342,0.428v0 C32.004,54,31.994,54,31.986,54v0c-0.006,0-0.012,0-0.018,0c-0.328,0.043-0.552-0.078-1.353-0.441l-16.16-6.698 c-0.245-0.098-0.41-0.179-0.608-0.276l-0.074-0.036c-0.105-0.078-0.3-0.223-0.401-0.306c-0.254-0.318-0.279-0.574-0.323-1.021 l-0.016-0.153C13.01,44.846,13,44.604,13,44.345V12.601C13,10.535,13.543,10,15.639,10h32.714V8H15.639 C12.431,8,11,9.419,11,12.601v31.744c0,0.336,0.014,0.647,0.045,0.936l0.014,0.138c0.056,0.57,0.133,1.351,0.83,2.169 c0.065,0.077,0.128,0.15,0.772,0.625l0.306,0.167c0.244,0.12,0.449,0.219,0.737,0.334l16.116,6.68 C30.619,55.756,31.156,56,31.97,56c0.02,0,0.039,0,0.061,0c0.813,0,1.35-0.243,2.119-0.593l16.133-6.687 c0.3-0.119,0.503-0.218,0.744-0.336l0.313-0.171c0.645-0.475,0.707-0.548,0.771-0.625c0.698-0.819,0.775-1.6,0.831-2.17l0.015-0.14 C52.985,44.99,53,44.68,53,44.345V12.601C53,9.419,51.571,8,48.366,8z" clip-rule="evenodd"/><linearGradient id="o3mEzuWF~zlvl~vPMuVXDb" x1="32.043" x2="32.043" y1="7.381" y2="56.576" gradientUnits="userSpaceOnUse"><stop offset="0" stop-color="#1a6dff"/><stop offset="1" stop-color="#c822ff"/></linearGradient><polygon fill="url(#o3mEzuWF~zlvl~vPMuVXDb)" fill-rule="evenodd" points="39.987,49 24.098,49 31.877,51.674" clip-rule="evenodd"/><g><linearGradient id="o3mEzuWF~zlvl~vPMuVXDc" x1="19" x2="19" y1="15.511" y2="36.716" gradientUnits="userSpaceOnUse"><stop offset="0" stop-color="#6dc7ff"/><stop offset="1" stop-color="#e6abff"/></linearGradient><polygon fill="url(#o3mEzuWF~zlvl~vPMuVXDc)" points="16,34 22,34 22,31 19,31 19,26 22,26 22,23 19,23 19,18 22,18 22,15 16,15"/><linearGradient id="o3mEzuWF~zlvl~vPMuVXDd" x1="35.5" x2="35.5" y1="15.511" y2="36.716" gradientUnits="userSpaceOnUse"><stop offset="0" stop-color="#6dc7ff"/><stop offset="1" stop-color="#e6abff"/></linearGradient><rect width="3" height="19" x="34" y="15" fill="url(#o3mEzuWF~zlvl~vPMuVXDd)"/><linearGradient id="o3mEzuWF~zlvl~vPMuVXDe" x1="28" x2="28" y1="15.511" y2="36.716" gradientUnits="userSpaceOnUse"><stop offset="0" stop-color="#6dc7ff"/><stop offset="1" stop-color="#e6abff"/></linearGradient><path fill="url(#o3mEzuWF~zlvl~vPMuVXDe)" d="M27,28h1.597C30.874,28,32,26.861,32,24.556v-5.9C32,16.209,30.797,15,28.362,15h-1.01H24v19 h3V28z M27,18h1c0.552,0,1,0.448,1,1v5c0,0.552-0.448,1-1,1h-1V18z"/><linearGradient id="o3mEzuWF~zlvl~vPMuVXDf" x1="43.5" x2="43.5" y1="15.511" y2="36.716" gradientUnits="userSpaceOnUse"><stop offset="0" stop-color="#6dc7ff"/><stop offset="1" stop-color="#e6abff"/></linearGradient><path fill="url(#o3mEzuWF~zlvl~vPMuVXDf)" d="M48,30.45V27h-3v2.826C45,30.628,44.614,31,43.812,31h-0.594C42.386,31,42,30.628,42,29.826 V24v-3.827V19c0-0.552,0.448-1,1-1h1c0.552,0,1,0.448,1,1v1v2h3v-3.377C48,16.18,46.785,15,44.267,15h-1.505 C40.245,15,39,16.208,39,18.652v11.697C39,32.792,40.245,34,42.762,34h1.524C46.772,34,48,32.826,48,30.45z"/><linearGradient id="o3mEzuWF~zlvl~vPMuVXDg" x1="45.83" x2="45.83" y1="15.511" y2="36.716" gradientUnits="userSpaceOnUse"><stop offset="0" stop-color="#6dc7ff"/><stop offset="1" stop-color="#e6abff"/></linearGradient><polygon fill="url(#o3mEzuWF~zlvl~vPMuVXDg)" points="48.491,40.829 48.483,40.743 48.466,40.657 48.448,40.571 48.431,40.493 48.406,40.416 48.38,40.339 48.346,40.27 48.303,40.193 48.26,40.124 48.209,40.046 48.158,39.978 48.098,39.917 48.038,39.849 47.969,39.789 47.901,39.728 47.833,39.685 47.764,39.634 47.696,39.591 47.619,39.548 47.541,39.505 47.456,39.462 47.37,39.428 47.285,39.385 47.19,39.351 47.114,39.325 47.037,39.299 46.951,39.273 46.874,39.247 46.788,39.222 46.703,39.196 46.617,39.179 46.523,39.153 46.437,39.127 46.344,39.11 46.249,39.084 46.155,39.058 46.061,39.033 45.975,39.015 45.899,38.99 45.821,38.972 45.753,38.947 45.685,38.93 45.582,38.895 45.487,38.861 45.402,38.826 45.334,38.783 45.256,38.74 45.197,38.68 45.162,38.629 45.12,38.534 45.111,38.422 45.111,38.405 45.12,38.319 45.154,38.242 45.205,38.164 45.282,38.096 45.342,38.061 45.411,38.027 45.487,38.01 45.573,37.992 45.667,37.975 45.77,37.975 45.856,37.975 45.932,37.984 46.018,37.992 46.104,38.001 46.189,38.018 46.275,38.036 46.361,38.053 46.446,38.078 46.532,38.104 46.626,38.13 46.694,38.164 46.771,38.19 46.839,38.225 46.917,38.259 46.985,38.293 47.062,38.328 47.131,38.371 47.208,38.405 47.276,38.457 47.345,38.5 47.421,38.543 47.49,38.594 47.541,38.525 47.584,38.457 47.635,38.388 47.687,38.319 47.738,38.242 47.781,38.173 47.833,38.104 47.884,38.036 47.927,37.967 47.978,37.898 48.029,37.829 48.072,37.76 48.123,37.683 48.175,37.614 48.226,37.546 48.269,37.477 48.32,37.408 48.252,37.357 48.184,37.305 48.115,37.253 48.046,37.21 47.969,37.159 47.901,37.116 47.824,37.073 47.747,37.03 47.678,36.995 47.601,36.952 47.516,36.918 47.439,36.884 47.362,36.849 47.285,36.823 47.199,36.789 47.122,36.772 47.045,36.746 46.959,36.72 46.882,36.703 46.797,36.686 46.712,36.669 46.634,36.652 46.549,36.634 46.455,36.626 46.369,36.609 46.275,36.6 46.189,36.6 46.095,36.591 46.001,36.583 45.907,36.583 45.813,36.583 45.719,36.583 45.633,36.583 45.548,36.591 45.462,36.6 45.376,36.609 45.291,36.617 45.214,36.634 45.128,36.652 45.051,36.669 44.974,36.686 44.906,36.703 44.829,36.729 44.743,36.763 44.658,36.789 44.58,36.823 44.504,36.866 44.427,36.901 44.349,36.944 44.281,36.987 44.213,37.038 44.144,37.09 44.084,37.133 44.016,37.193 43.956,37.262 43.896,37.322 43.836,37.391 43.784,37.46 43.733,37.528 43.69,37.606 43.648,37.683 43.614,37.76 43.579,37.838 43.545,37.915 43.528,37.992 43.502,38.07 43.485,38.147 43.468,38.225 43.459,38.311 43.451,38.388 43.442,38.474 43.442,38.56 43.442,38.577 43.442,38.672 43.451,38.766 43.459,38.852 43.468,38.938 43.485,39.015 43.502,39.101 43.528,39.17 43.553,39.247 43.579,39.316 43.614,39.376 43.657,39.453 43.699,39.522 43.742,39.582 43.793,39.642 43.845,39.703 43.904,39.763 43.964,39.823 44.024,39.875 44.093,39.917 44.161,39.969 44.238,40.012 44.307,40.055 44.392,40.098 44.469,40.141 44.555,40.175 44.641,40.21 44.726,40.244 44.82,40.279 44.897,40.304 44.974,40.33 45.051,40.356 45.136,40.373 45.214,40.399 45.299,40.425 45.385,40.442 45.471,40.468 45.556,40.485 45.65,40.511 45.736,40.528 45.83,40.554 45.916,40.571 46.001,40.596 46.078,40.614 46.155,40.64 46.224,40.657 46.283,40.674 46.386,40.717 46.472,40.751 46.549,40.786 46.617,40.82 46.686,40.872 46.745,40.923 46.788,40.983 46.823,41.069 46.831,41.172 46.831,41.19 46.823,41.276 46.797,41.353 46.763,41.422 46.712,41.482 46.643,41.534 46.583,41.568 46.514,41.594 46.437,41.611 46.361,41.628 46.275,41.645 46.181,41.654 46.078,41.654 45.992,41.654 45.899,41.645 45.813,41.645 45.727,41.628 45.633,41.619 45.548,41.602 45.462,41.585 45.376,41.568 45.299,41.542 45.214,41.516 45.128,41.49 45.051,41.456 44.974,41.43 44.897,41.396 44.82,41.362 44.743,41.327 44.675,41.284 44.597,41.25 44.529,41.207 44.452,41.155 44.384,41.112 44.307,41.061 44.238,41.009 44.161,40.958 44.093,40.906 44.041,40.975 43.982,41.035 43.93,41.104 43.87,41.172 43.819,41.233 43.768,41.301 43.708,41.37 43.657,41.43 43.596,41.499 43.545,41.559 43.485,41.628 43.434,41.697 43.383,41.757 43.323,41.826 43.271,41.895 43.212,41.955 43.16,42.023 43.228,42.084 43.288,42.135 43.357,42.187 43.425,42.238 43.494,42.29 43.562,42.341 43.631,42.384 43.699,42.427 43.776,42.47 43.845,42.513 43.922,42.556 43.999,42.591 44.076,42.633 44.153,42.668 44.23,42.702 44.315,42.736 44.392,42.762 44.478,42.788 44.555,42.822 44.641,42.848 44.726,42.874 44.803,42.891 44.889,42.917 44.974,42.934 45.06,42.951 45.145,42.968 45.231,42.986 45.317,42.994 45.402,43.011 45.496,43.02 45.582,43.029 45.667,43.037 45.761,43.037 45.847,43.046 45.932,43.046 46.027,43.046 46.121,43.046 46.206,43.046 46.292,43.037 46.386,43.029 46.472,43.02 46.549,43.011 46.634,43.003 46.72,42.986 46.797,42.968 46.874,42.951 46.959,42.934 47.037,42.908 47.122,42.882 47.208,42.857 47.293,42.822 47.379,42.788 47.456,42.745 47.533,42.711 47.61,42.668 47.678,42.616 47.747,42.574 47.815,42.522 47.875,42.47 47.944,42.41 47.995,42.359 48.055,42.298 48.106,42.238 48.149,42.17 48.2,42.101 48.243,42.032 48.286,41.963 48.32,41.886 48.354,41.817 48.389,41.74 48.415,41.654 48.431,41.576 48.457,41.49 48.474,41.404 48.483,41.31 48.491,41.224 48.5,41.13 48.5,41.035 48.5,41.018 48.5,40.923"/><linearGradient id="o3mEzuWF~zlvl~vPMuVXDh" x1="40.081" x2="40.081" y1="15.511" y2="36.716" gradientUnits="userSpaceOnUse"><stop offset="0" stop-color="#6dc7ff"/><stop offset="1" stop-color="#e6abff"/></linearGradient><polygon fill="url(#o3mEzuWF~zlvl~vPMuVXDh)" points="42.404,41.525 42.319,41.525 42.233,41.525 42.148,41.525 42.062,41.525 41.976,41.525 41.891,41.525 41.805,41.525 41.711,41.525 41.625,41.525 41.54,41.525 41.455,41.525 41.368,41.525 41.283,41.525 41.198,41.525 41.112,41.525 41.026,41.525 40.941,41.525 40.855,41.525 40.77,41.525 40.684,41.525 40.599,41.525 40.513,41.525 40.428,41.525 40.342,41.525 40.256,41.525 40.171,41.525 40.085,41.525 39.991,41.525 39.905,41.525 39.82,41.525 39.734,41.525 39.649,41.525 39.563,41.525 39.477,41.525 39.392,41.525 39.307,41.525 39.221,41.525 39.221,41.439 39.221,41.344 39.221,41.258 39.221,41.172 39.221,41.078 39.221,40.992 39.221,40.906 39.221,40.811 39.221,40.725 39.221,40.64 39.221,40.545 39.221,40.459 39.307,40.459 39.392,40.459 39.477,40.459 39.563,40.459 39.649,40.459 39.734,40.459 39.82,40.459 39.905,40.459 39.983,40.459 40.068,40.459 40.154,40.459 40.239,40.459 40.325,40.459 40.41,40.459 40.496,40.459 40.581,40.459 40.667,40.459 40.753,40.459 40.838,40.459 40.924,40.459 41.01,40.459 41.095,40.459 41.18,40.459 41.266,40.459 41.352,40.459 41.437,40.459 41.514,40.459 41.6,40.459 41.686,40.459 41.771,40.459 41.857,40.459 41.942,40.459 42.028,40.459 42.113,40.459 42.199,40.459 42.199,40.373 42.199,40.296 42.199,40.21 42.199,40.124 42.199,40.046 42.199,39.96 42.199,39.875 42.199,39.789 42.199,39.711 42.199,39.625 42.199,39.539 42.199,39.462 42.199,39.376 42.199,39.29 42.199,39.213 42.199,39.127 42.113,39.127 42.028,39.127 41.942,39.127 41.857,39.127 41.771,39.127 41.686,39.127 41.6,39.127 41.514,39.127 41.437,39.127 41.352,39.127 41.266,39.127 41.18,39.127 41.095,39.127 41.01,39.127 40.924,39.127 40.838,39.127 40.753,39.127 40.667,39.127 40.581,39.127 40.496,39.127 40.41,39.127 40.325,39.127 40.239,39.127 40.154,39.127 40.068,39.127 39.983,39.127 39.905,39.127 39.82,39.127 39.734,39.127 39.649,39.127 39.563,39.127 39.477,39.127 39.392,39.127 39.307,39.127 39.221,39.127 39.221,39.041 39.221,38.955 39.221,38.869 39.221,38.783 39.221,38.697 39.221,38.611 39.221,38.534 39.221,38.448 39.221,38.362 39.221,38.276 39.221,38.19 39.221,38.104 39.307,38.104 39.392,38.104 39.477,38.104 39.563,38.104 39.649,38.104 39.734,38.104 39.811,38.104 39.897,38.104 39.983,38.104 40.068,38.104 40.154,38.104 40.239,38.104 40.325,38.104 40.41,38.104 40.496,38.104 40.581,38.104 40.667,38.104 40.753,38.104 40.838,38.104 40.915,38.104 41.001,38.104 41.086,38.104 41.172,38.104 41.257,38.104 41.343,38.104 41.429,38.104 41.514,38.104 41.6,38.104 41.686,38.104 41.771,38.104 41.857,38.104 41.942,38.104 42.019,38.104 42.105,38.104 42.19,38.104 42.276,38.104 42.362,38.104 42.447,38.104 42.533,38.104 42.533,38.018 42.533,37.941 42.533,37.855 42.533,37.769 42.533,37.683 42.533,37.606 42.533,37.52 42.533,37.434 42.533,37.357 42.533,37.271 42.533,37.185 42.533,37.107 42.533,37.021 42.533,36.935 42.533,36.849 42.533,36.772 42.533,36.686 42.447,36.686 42.362,36.686 42.276,36.686 42.19,36.686 42.105,36.686 42.019,36.686 41.933,36.686 41.848,36.686 41.762,36.686 41.677,36.686 41.591,36.686 41.506,36.686 41.42,36.686 41.335,36.686 41.257,36.686 41.172,36.686 41.086,36.686 41.001,36.686 40.915,36.686 40.83,36.686 40.744,36.686 40.659,36.686 40.573,36.686 40.487,36.686 40.402,36.686 40.316,36.686 40.231,36.686 40.145,36.686 40.059,36.686 39.974,36.686 39.889,36.686 39.803,36.686 39.717,36.686 39.632,36.686 39.546,36.686 39.46,36.686 39.375,36.686 39.289,36.686 39.204,36.686 39.118,36.686 39.033,36.686 38.947,36.686 38.862,36.686 38.784,36.686 38.699,36.686 38.613,36.686 38.528,36.686 38.442,36.686 38.357,36.686 38.271,36.686 38.186,36.686 38.1,36.686 38.014,36.686 37.929,36.686 37.843,36.686 37.757,36.686 37.672,36.686 37.586,36.686 37.586,36.772 37.586,36.858 37.586,36.944 37.586,37.03 37.586,37.116 37.586,37.202 37.586,37.288 37.586,37.374 37.586,37.46 37.586,37.546 37.586,37.631 37.586,37.717 37.586,37.803 37.586,37.889 37.586,37.975 37.586,38.061 37.586,38.147 37.586,38.233 37.586,38.311 37.586,38.396 37.586,38.482 37.586,38.568 37.586,38.654 37.586,38.74 37.586,38.826 37.586,38.912 37.586,38.998 37.586,39.084 37.586,39.17 37.586,39.256 37.586,39.342 37.586,39.428 37.586,39.513 37.586,39.599 37.586,39.685 37.586,39.771 37.586,39.857 37.586,39.943 37.586,40.029 37.586,40.115 37.586,40.201 37.586,40.287 37.586,40.373 37.586,40.459 37.586,40.545 37.586,40.631 37.586,40.717 37.586,40.803 37.586,40.889 37.586,40.975 37.586,41.061 37.586,41.147 37.586,41.233 37.586,41.319 37.586,41.396 37.586,41.482 37.586,41.568 37.586,41.654 37.586,41.74 37.586,41.826 37.586,41.912 37.586,41.998 37.586,42.084 37.586,42.17 37.586,42.256 37.586,42.341 37.586,42.427 37.586,42.513 37.586,42.599 37.586,42.685 37.586,42.771 37.586,42.857 37.586,42.943 37.672,42.943 37.757,42.943 37.843,42.943 37.929,42.943 38.014,42.943 38.1,42.943 38.186,42.943 38.271,42.943 38.357,42.943 38.451,42.943 38.536,42.943 38.622,42.943 38.707,42.943 38.793,42.943 38.878,42.943 38.964,42.943 39.05,42.943 39.135,42.943 39.221,42.943 39.307,42.943 39.392,42.943 39.477,42.943 39.563,42.943 39.649,42.943 39.734,42.943 39.82,42.943 39.905,42.943 39.991,42.943 40.085,42.943 40.171,42.943 40.256,42.943 40.342,42.943 40.428,42.943 40.513,42.943 40.599,42.943 40.684,42.943 40.77,42.943 40.855,42.943 40.941,42.943 41.026,42.943 41.112,42.943 41.198,42.943 41.283,42.943 41.368,42.943 41.455,42.943 41.54,42.943 41.625,42.943 41.711,42.943 41.805,42.943 41.891,42.943 41.976,42.943 42.062,42.943 42.148,42.943 42.233,42.943 42.319,42.943 42.404,42.943 42.49,42.943 42.576,42.943 42.576,42.857 42.576,42.779 42.576,42.693 42.576,42.607 42.576,42.522 42.576,42.445 42.576,42.359 42.576,42.273 42.576,42.195 42.576,42.109 42.576,42.023 42.576,41.946 42.576,41.86 42.576,41.774 42.576,41.688 42.576,41.611 42.576,41.525 42.49,41.525"/><linearGradient id="o3mEzuWF~zlvl~vPMuVXDi" x1="33.05" x2="33.05" y1="15.511" y2="36.716" gradientUnits="userSpaceOnUse"><stop offset="0" stop-color="#6dc7ff"/><stop offset="1" stop-color="#e6abff"/></linearGradient><polygon fill="url(#o3mEzuWF~zlvl~vPMuVXDi)" points="36.152,36.686 36.075,36.686 35.989,36.686 35.904,36.686 35.818,36.686 35.741,36.686 35.655,36.686 35.57,36.686 35.485,36.686 35.407,36.686 35.322,36.686 35.236,36.686 35.151,36.686 35.073,36.686 34.988,36.686 34.903,36.686 34.817,36.686 34.74,36.686 34.654,36.686 34.569,36.686 34.526,36.755 34.483,36.832 34.432,36.9 34.389,36.978 34.346,37.046 34.303,37.124 34.252,37.192 34.209,37.27 34.166,37.338 34.124,37.407 34.072,37.484 34.03,37.553 33.987,37.63 33.944,37.699 33.893,37.776 33.85,37.844 33.807,37.913 33.764,37.99 33.721,38.059 33.67,38.136 33.627,38.205 33.584,38.282 33.542,38.351 33.49,38.428 33.448,38.496 33.405,38.565 33.362,38.642 33.311,38.711 33.268,38.788 33.225,38.857 33.182,38.934 33.131,39.003 33.088,39.08 33.045,39.148 33.003,39.08 32.96,39.003 32.908,38.934 32.866,38.857 32.823,38.788 32.78,38.711 32.737,38.642 32.686,38.565 32.643,38.496 32.6,38.428 32.558,38.351 32.515,38.282 32.463,38.205 32.421,38.136 32.378,38.059 32.336,37.99 32.292,37.913 32.241,37.844 32.198,37.776 32.155,37.699 32.112,37.63 32.061,37.553 32.018,37.484 31.976,37.407 31.933,37.338 31.89,37.27 31.839,37.192 31.796,37.124 31.753,37.046 31.711,36.978 31.667,36.9 31.616,36.832 31.573,36.755 31.531,36.686 31.445,36.686 31.36,36.686 31.283,36.686 31.197,36.686 31.111,36.686 31.026,36.686 30.949,36.686 30.864,36.686 30.778,36.686 30.692,36.686 30.615,36.686 30.53,36.686 30.444,36.686 30.358,36.686 30.282,36.686 30.196,36.686 30.11,36.686 30.025,36.686 29.948,36.686 29.862,36.686 29.776,36.686 29.776,36.772 29.776,36.858 29.776,36.944 29.776,37.03 29.776,37.116 29.776,37.202 29.776,37.288 29.776,37.374 29.776,37.46 29.776,37.546 29.776,37.631 29.776,37.717 29.776,37.803 29.776,37.889 29.776,37.975 29.776,38.061 29.776,38.147 29.776,38.233 29.776,38.311 29.776,38.396 29.776,38.482 29.776,38.568 29.776,38.654 29.776,38.74 29.776,38.826 29.776,38.912 29.776,38.998 29.776,39.084 29.776,39.17 29.776,39.256 29.776,39.342 29.776,39.428 29.776,39.513 29.776,39.599 29.776,39.685 29.776,39.771 29.776,39.857 29.776,39.943 29.776,40.029 29.776,40.115 29.776,40.201 29.776,40.287 29.776,40.373 29.776,40.459 29.776,40.545 29.776,40.631 29.776,40.717 29.776,40.803 29.776,40.889 29.776,40.975 29.776,41.061 29.776,41.147 29.776,41.233 29.776,41.319 29.776,41.396 29.776,41.482 29.776,41.568 29.776,41.654 29.776,41.74 29.776,41.826 29.776,41.912 29.776,41.998 29.776,42.084 29.776,42.17 29.776,42.256 29.776,42.341 29.776,42.427 29.776,42.513 29.776,42.599 29.776,42.685 29.776,42.771 29.776,42.857 29.776,42.943 29.862,42.943 29.948,42.943 30.033,42.943 30.119,42.943 30.204,42.943 30.29,42.943 30.376,42.943 30.461,42.943 30.547,42.943 30.632,42.943 30.718,42.943 30.803,42.943 30.889,42.943 30.975,42.943 31.06,42.943 31.146,42.943 31.231,42.943 31.317,42.943 31.403,42.943 31.403,42.857 31.403,42.771 31.403,42.685 31.403,42.599 31.403,42.512 31.403,42.426 31.403,42.34 31.403,42.254 31.403,42.169 31.403,42.083 31.403,42.005 31.403,41.919 31.403,41.833 31.403,41.747 31.403,41.661 31.403,41.575 31.403,41.488 31.403,41.403 31.403,41.317 31.403,41.231 31.403,41.145 31.403,41.059 31.403,40.972 31.403,40.886 31.403,40.8 31.403,40.714 31.403,40.628 31.403,40.542 31.403,40.456 31.403,40.37 31.403,40.284 31.403,40.198 31.403,40.121 31.403,40.035 31.403,39.948 31.403,39.862 31.403,39.776 31.403,39.69 31.403,39.604 31.403,39.518 31.403,39.432 31.403,39.346 31.403,39.26 31.454,39.329 31.497,39.407 31.548,39.476 31.591,39.553 31.642,39.622 31.685,39.699 31.736,39.768 31.779,39.846 31.83,39.914 31.873,39.992 31.924,40.061 31.967,40.138 32.018,40.207 32.061,40.285 32.112,40.353 32.155,40.431 32.207,40.5 32.258,40.577 32.301,40.646 32.352,40.724 32.395,40.793 32.447,40.87 32.489,40.939 32.541,41.017 32.583,41.086 32.635,41.163 32.678,41.232 32.729,41.309 32.772,41.378 32.823,41.456 32.866,41.524 32.917,41.602 32.96,41.671 33.011,41.748 33.045,41.748 33.088,41.68 33.139,41.602 33.182,41.533 33.234,41.464 33.276,41.387 33.328,41.318 33.37,41.249 33.413,41.172 33.465,41.103 33.508,41.034 33.559,40.965 33.602,40.887 33.653,40.819 33.696,40.75 33.739,40.672 33.79,40.603 33.833,40.534 33.884,40.457 33.927,40.388 33.978,40.319 34.021,40.242 34.064,40.173 34.115,40.104 34.158,40.026 34.209,39.957 34.252,39.889 34.303,39.82 34.346,39.742 34.389,39.673 34.44,39.604 34.483,39.527 34.534,39.458 34.577,39.39 34.629,39.312 34.671,39.243 34.671,39.329 34.671,39.415 34.671,39.501 34.671,39.587 34.671,39.673 34.671,39.759 34.671,39.845 34.671,39.931 34.671,40.018 34.671,40.104 34.671,40.19 34.671,40.275 34.671,40.361 34.671,40.447 34.671,40.534 34.671,40.62 34.671,40.706 34.671,40.792 34.671,40.878 34.671,40.964 34.671,41.05 34.671,41.136 34.671,41.222 34.671,41.308 34.671,41.394 34.671,41.48 34.671,41.566 34.671,41.652 34.671,41.738 34.671,41.824 34.671,41.91 34.671,41.997 34.671,42.083 34.671,42.169 34.671,42.254 34.671,42.34 34.671,42.426 34.671,42.512 34.671,42.599 34.671,42.685 34.671,42.771 34.671,42.857 34.671,42.943 34.757,42.943 34.842,42.943 34.928,42.943 35.022,42.943 35.108,42.943 35.193,42.943 35.279,42.943 35.365,42.943 35.45,42.943 35.544,42.943 35.63,42.943 35.716,42.943 35.801,42.943 35.887,42.943 35.972,42.943 36.066,42.943 36.152,42.943 36.237,42.943 36.323,42.943 36.323,42.857 36.323,42.771 36.323,42.685 36.323,42.599 36.323,42.513 36.323,42.427 36.323,42.341 36.323,42.256 36.323,42.17 36.323,42.084 36.323,41.998 36.323,41.912 36.323,41.826 36.323,41.74 36.323,41.654 36.323,41.568 36.323,41.482 36.323,41.396 36.323,41.319 36.323,41.233 36.323,41.147 36.323,41.061 36.323,40.975 36.323,40.889 36.323,40.803 36.323,40.717 36.323,40.631 36.323,40.545 36.323,40.459 36.323,40.373 36.323,40.287 36.323,40.201 36.323,40.115 36.323,40.029 36.323,39.943 36.323,39.857 36.323,39.771 36.323,39.685 36.323,39.599 36.323,39.513 36.323,39.428 36.323,39.342 36.323,39.256 36.323,39.17 36.323,39.084 36.323,38.998 36.323,38.912 36.323,38.826 36.323,38.74 36.323,38.654 36.323,38.568 36.323,38.482 36.323,38.396 36.323,38.311 36.323,38.233 36.323,38.147 36.323,38.061 36.323,37.975 36.323,37.889 36.323,37.803 36.323,37.717 36.323,37.631 36.323,37.546 36.323,37.46 36.323,37.374 36.323,37.288 36.323,37.202 36.323,37.116 36.323,37.03 36.323,36.944 36.323,36.858 36.323,36.772 36.323,36.686 36.237,36.686"/><linearGradient id="o3mEzuWF~zlvl~vPMuVXDj" x1="25.637" x2="25.637" y1="15.511" y2="36.716" gradientUnits="userSpaceOnUse"><stop offset="0" stop-color="#6dc7ff"/><stop offset="1" stop-color="#e6abff"/></linearGradient><path fill="url(#o3mEzuWF~zlvl~vPMuVXDj)" d="M29.012,42.788l-0.034-0.077l-0.026-0.086l-0.034-0.077l-0.034-0.077l-0.034-0.077 l-0.034-0.077l-0.034-0.077l-0.034-0.086l-0.034-0.077l-0.026-0.077l-0.034-0.077l-0.034-0.077l-0.034-0.077L28.55,41.68 l-0.034-0.077l-0.034-0.078l-0.034-0.077l-0.025-0.077l-0.034-0.077l-0.034-0.086l-0.034-0.077l-0.034-0.077l-0.034-0.077 l-0.034-0.077l-0.034-0.077l-0.026-0.086l-0.034-0.077l-0.034-0.077l-0.034-0.077l-0.034-0.077l-0.034-0.077l-0.034-0.086 l-0.034-0.077l-0.026-0.077l-0.034-0.077l-0.034-0.077l-0.034-0.077l-0.034-0.086l-0.034-0.077l-0.034-0.077l-0.034-0.077 l-0.025-0.077l-0.034-0.077l-0.034-0.077l-0.034-0.086l-0.034-0.077l-0.034-0.078l-0.034-0.077l-0.034-0.077l-0.026-0.077 l-0.034-0.086l-0.034-0.077l-0.034-0.077l-0.034-0.077l-0.034-0.077l-0.034-0.077l-0.034-0.086l-0.026-0.077l-0.034-0.077 l-0.034-0.077l-0.034-0.077l-0.034-0.077l-0.034-0.086l-0.034-0.077l-0.034-0.077l-0.025-0.077l-0.034-0.077l-0.034-0.077 l-0.034-0.086l-0.034-0.077l-0.034-0.077l-0.034-0.077l-0.034-0.077l-0.026-0.077l-0.034-0.086l-0.034-0.077l-0.034-0.077 l-0.034-0.077h-0.086h-0.077H26.18h-0.085h-0.085h-0.077h-0.086h-0.086h-0.085h-0.077h-0.086h-0.086h-0.085h-0.077h-0.086h-0.085 h-0.085H24.93h-0.085l-0.034,0.077l-0.034,0.077l-0.034,0.077l-0.026,0.086l-0.034,0.077l-0.034,0.077l-0.034,0.077l-0.034,0.077 l-0.034,0.077l-0.034,0.086l-0.034,0.077l-0.025,0.077l-0.034,0.077l-0.034,0.077l-0.034,0.077l-0.034,0.086l-0.034,0.077 l-0.034,0.077l-0.034,0.077l-0.026,0.077l-0.034,0.077l-0.034,0.086l-0.034,0.077l-0.034,0.077l-0.034,0.077l-0.034,0.077 l-0.034,0.077l-0.026,0.086l-0.034,0.077l-0.034,0.077l-0.034,0.077l-0.034,0.078l-0.034,0.077l-0.034,0.086l-0.034,0.077 l-0.026,0.077l-0.034,0.077l-0.034,0.077l-0.034,0.077l-0.034,0.077l-0.034,0.086l-0.034,0.077l-0.034,0.077l-0.026,0.077 l-0.034,0.077l-0.034,0.077l-0.034,0.086l-0.034,0.077l-0.034,0.077l-0.034,0.077l-0.034,0.077l-0.026,0.077l-0.034,0.086 l-0.034,0.077l-0.034,0.077l-0.034,0.077l-0.034,0.077l-0.034,0.077l-0.034,0.086L22.86,41.37l-0.034,0.077l-0.034,0.077 l-0.034,0.078l-0.034,0.077l-0.034,0.086l-0.034,0.077L22.62,41.92l-0.026,0.077l-0.034,0.077l-0.034,0.077l-0.034,0.086 l-0.034,0.077l-0.034,0.077l-0.034,0.077l-0.034,0.077l-0.026,0.077l-0.034,0.086l-0.034,0.077l-0.034,0.077l-0.034,0.077h0.085 h0.086h0.085h0.086h0.094h0.085H22.8h0.086h0.086h0.085h0.085h0.086h0.086h0.085h0.094h0.085h0.086h0.085h0.085h0.085l0.034-0.077 l0.026-0.077l0.034-0.077l0.034-0.086l0.026-0.077l0.034-0.077l0.034-0.077l0.026-0.077l0.034-0.077l0.034-0.077l0.025-0.077 l0.034-0.086l0.034-0.077l0.026-0.077l0.034-0.077h0.085h0.086h0.086h0.085h0.078h0.085h0.085h0.085h0.086h0.086h0.085h0.085h0.086 h0.086h0.077h0.085h0.086h0.085H26h0.086h0.085h0.086h0.085h0.086h0.077h0.085h0.085h0.085h0.085l0.034,0.077l0.026,0.077 l0.034,0.077l0.034,0.086l0.026,0.077l0.034,0.077l0.034,0.077l0.025,0.077l0.034,0.077l0.034,0.077l0.025,0.077l0.034,0.086 l0.034,0.077l0.026,0.077l0.034,0.077h0.086h0.085h0.077h0.085h0.086h0.086h0.085h0.077h0.086h0.086h0.085h0.085h0.086h0.077h0.086 h0.085h0.086h0.085h0.077h0.086h0.085l-0.034-0.077L29.012,42.788z M26.257,40.442h-0.086h-0.085H26h-0.085H25.83h-0.086h-0.085 h-0.077h-0.086H25.41h-0.085h-0.085h-0.086h-0.086h-0.085h-0.085l0.034-0.077l0.026-0.078l0.034-0.086l0.034-0.077l0.025-0.078 l0.034-0.077l0.034-0.086l0.034-0.078l0.026-0.077l0.034-0.077l0.034-0.078l0.025-0.086l0.034-0.077l0.034-0.078l0.026-0.077 l0.034-0.077l0.034-0.086l0.034-0.077l0.025-0.077l0.034-0.078l0.034-0.086l0.026-0.078l0.034-0.077l0.034,0.077l0.026,0.078 l0.034,0.086l0.034,0.078l0.026,0.077l0.034,0.077l0.034,0.086l0.026,0.077l0.034,0.077l0.034,0.078l0.025,0.077L26,39.572 l0.026,0.078l0.034,0.077l0.034,0.077l0.026,0.078l0.034,0.086l0.034,0.077l0.026,0.078l0.034,0.077l0.034,0.086l0.026,0.078 l0.034,0.077H26.257z"/><linearGradient id="o3mEzuWF~zlvl~vPMuVXDk" x1="18.529" x2="18.529" y1="15.511" y2="36.716" gradientUnits="userSpaceOnUse"><stop offset="0" stop-color="#6dc7ff"/><stop offset="1" stop-color="#e6abff"/></linearGradient><polygon fill="url(#o3mEzuWF~zlvl~vPMuVXDk)" points="21.387,39.299 21.302,39.299 21.216,39.299 21.131,39.299 21.045,39.299 20.959,39.299 20.874,39.299 20.788,39.299 20.703,39.299 20.617,39.299 20.531,39.299 20.446,39.299 20.361,39.299 20.275,39.299 20.189,39.299 20.104,39.299 20.018,39.299 19.932,39.299 19.847,39.299 19.761,39.299 19.676,39.299 19.59,39.299 19.505,39.299 19.419,39.299 19.334,39.299 19.248,39.299 19.162,39.299 19.077,39.299 18.991,39.299 18.906,39.299 18.82,39.299 18.734,39.299 18.734,39.385 18.734,39.462 18.734,39.548 18.734,39.634 18.734,39.72 18.734,39.797 18.734,39.883 18.734,39.969 18.734,40.055 18.734,40.132 18.734,40.218 18.734,40.304 18.734,40.39 18.734,40.468 18.734,40.554 18.82,40.554 18.897,40.554 18.983,40.554 19.068,40.554 19.154,40.554 19.231,40.554 19.316,40.554 19.402,40.554 19.487,40.554 19.565,40.554 19.65,40.554 19.736,40.554 19.821,40.554 19.898,40.554 19.984,40.554 19.984,40.64 19.984,40.725 19.984,40.811 19.984,40.897 19.984,40.992 19.984,41.078 19.984,41.164 19.984,41.25 19.984,41.336 19.916,41.379 19.855,41.413 19.779,41.448 19.71,41.482 19.633,41.516 19.556,41.534 19.471,41.559 19.385,41.576 19.299,41.594 19.214,41.602 19.12,41.611 19.025,41.619 18.923,41.619 18.828,41.619 18.734,41.611 18.649,41.602 18.564,41.585 18.478,41.568 18.392,41.542 18.307,41.516 18.229,41.482 18.153,41.448 18.076,41.413 18.007,41.37 17.939,41.327 17.87,41.276 17.802,41.224 17.742,41.172 17.69,41.112 17.631,41.052 17.579,40.992 17.528,40.923 17.485,40.854 17.442,40.786 17.4,40.708 17.365,40.631 17.331,40.545 17.306,40.476 17.28,40.399 17.263,40.322 17.245,40.244 17.228,40.167 17.22,40.081 17.211,40.003 17.203,39.917 17.203,39.831 17.203,39.814 17.203,39.72 17.211,39.634 17.22,39.548 17.237,39.453 17.254,39.376 17.271,39.29 17.297,39.205 17.331,39.127 17.357,39.05 17.391,38.972 17.434,38.904 17.476,38.826 17.519,38.758 17.562,38.697 17.614,38.629 17.673,38.568 17.725,38.508 17.784,38.457 17.845,38.405 17.904,38.354 17.973,38.311 18.041,38.268 18.11,38.225 18.187,38.19 18.264,38.156 18.341,38.13 18.418,38.104 18.495,38.087 18.58,38.07 18.658,38.061 18.743,38.053 18.828,38.053 18.923,38.053 19.017,38.061 19.111,38.07 19.197,38.078 19.282,38.096 19.368,38.113 19.445,38.13 19.522,38.156 19.599,38.182 19.667,38.207 19.736,38.242 19.804,38.276 19.881,38.319 19.95,38.362 20.018,38.405 20.087,38.448 20.155,38.5 20.224,38.543 20.292,38.603 20.361,38.654 20.412,38.586 20.472,38.525 20.523,38.457 20.583,38.388 20.634,38.319 20.686,38.259 20.745,38.19 20.797,38.122 20.857,38.053 20.908,37.992 20.959,37.924 21.019,37.855 21.07,37.795 21.122,37.726 21.182,37.657 21.233,37.589 21.293,37.528 21.345,37.46 21.276,37.408 21.208,37.348 21.139,37.296 21.07,37.245 21.002,37.202 20.934,37.15 20.857,37.107 20.788,37.064 20.712,37.021 20.643,36.978 20.566,36.944 20.489,36.901 20.412,36.866 20.335,36.832 20.258,36.798 20.181,36.772 20.112,36.746 20.036,36.729 19.958,36.703 19.881,36.686 19.804,36.669 19.727,36.652 19.642,36.634 19.556,36.617 19.479,36.609 19.385,36.591 19.299,36.583 19.214,36.583 19.12,36.574 19.025,36.566 18.931,36.566 18.837,36.566 18.752,36.566 18.658,36.566 18.572,36.574 18.486,36.583 18.401,36.591 18.315,36.6 18.229,36.617 18.144,36.626 18.058,36.643 17.982,36.669 17.896,36.686 17.819,36.712 17.742,36.729 17.665,36.763 17.579,36.789 17.511,36.815 17.425,36.858 17.348,36.892 17.271,36.927 17.194,36.97 17.117,37.013 17.04,37.056 16.972,37.099 16.903,37.142 16.835,37.193 16.766,37.236 16.698,37.288 16.638,37.339 16.569,37.399 16.51,37.451 16.45,37.511 16.39,37.571 16.338,37.631 16.279,37.692 16.227,37.752 16.176,37.821 16.124,37.889 16.073,37.958 16.03,38.027 15.987,38.096 15.945,38.164 15.902,38.233 15.859,38.311 15.825,38.388 15.791,38.465 15.756,38.543 15.722,38.62 15.688,38.706 15.662,38.783 15.636,38.869 15.611,38.947 15.594,39.033 15.568,39.119 15.551,39.196 15.542,39.282 15.525,39.367 15.517,39.462 15.509,39.548 15.509,39.634 15.5,39.728 15.5,39.814 15.5,39.831 15.5,39.917 15.5,40.012 15.509,40.098 15.517,40.184 15.525,40.27 15.534,40.347 15.551,40.433 15.56,40.511 15.577,40.596 15.603,40.674 15.62,40.76 15.645,40.837 15.662,40.915 15.697,40.992 15.722,41.061 15.756,41.138 15.791,41.215 15.825,41.293 15.859,41.37 15.902,41.439 15.945,41.516 15.987,41.585 16.03,41.654 16.081,41.723 16.124,41.791 16.176,41.852 16.227,41.92 16.279,41.98 16.338,42.041 16.398,42.101 16.458,42.152 16.518,42.213 16.578,42.264 16.638,42.316 16.706,42.367 16.775,42.419 16.843,42.47 16.912,42.513 16.98,42.556 17.057,42.599 17.126,42.642 17.203,42.685 17.28,42.719 17.357,42.754 17.434,42.788 17.519,42.822 17.596,42.848 17.673,42.882 17.751,42.908 17.836,42.925 17.913,42.951 17.999,42.968 18.076,42.986 18.161,43.003 18.247,43.02 18.333,43.029 18.418,43.037 18.503,43.046 18.597,43.054 18.683,43.063 18.769,43.063 18.863,43.063 18.957,43.063 19.051,43.063 19.145,43.054 19.231,43.046 19.325,43.037 19.41,43.029 19.505,43.02 19.59,43.011 19.676,42.994 19.761,42.977 19.838,42.96 19.924,42.943 20.001,42.917 20.087,42.891 20.163,42.865 20.241,42.839 20.318,42.814 20.394,42.779 20.48,42.745 20.557,42.711 20.643,42.676 20.72,42.633 20.797,42.599 20.874,42.556 20.951,42.513 21.028,42.47 21.096,42.427 21.165,42.384 21.233,42.333 21.302,42.29 21.37,42.238 21.43,42.195 21.499,42.144 21.558,42.092 21.558,42.006 21.558,41.92 21.558,41.834 21.558,41.757 21.558,41.671 21.558,41.585 21.558,41.499 21.558,41.413 21.558,41.327 21.558,41.25 21.558,41.164 21.558,41.078 21.558,40.992 21.558,40.906 21.558,40.82 21.558,40.734 21.558,40.657 21.558,40.571 21.558,40.485 21.558,40.399 21.558,40.313 21.558,40.227 21.558,40.141 21.558,40.064 21.558,39.978 21.558,39.892 21.558,39.806 21.558,39.72 21.558,39.634 21.558,39.556 21.558,39.47 21.558,39.385 21.558,39.299 21.473,39.299"/></g></svg>