<svg xmlns="http://www.w3.org/2000/svg"  viewBox="0 0 64 64" width="100px" height="100px"><linearGradient id="t75HyvfA2xbCxktK9gTYLa" x1="32" x2="32" y1="8" y2="56" gradientUnits="userSpaceOnUse" spreadMethod="reflect"><stop offset="0" stop-color="#1a6dff"/><stop offset="1" stop-color="#c822ff"/></linearGradient><path fill="url(#t75HyvfA2xbCxktK9gTYLa)" d="M61.54,20.16c-0.48-0.31-0.74-0.19-1.84,0.3C58.14,21.15,53.99,23,52,23 c-2.3,0-4.34-1.51-6.7-3.25C42.3,17.52,38.9,15,34,15c-1.71,0-3.55,0.23-5.22,0.53c3.49-1.99,7.15-3.69,11.62-5.61 c0.47-0.21,0.71-0.74,0.55-1.23c-0.16-0.49-0.66-0.77-1.16-0.67l-1.13,0.25c-5.7,1.24-11.57,2.52-19.07,6.24 c0.83-1.23,1.91-2.65,3.1-3.79c0.35-0.34,0.41-0.88,0.14-1.28c-0.28-0.41-0.81-0.56-1.25-0.35c-5.76,2.7-8.12,5.66-10.2,8.27 c-2.09,2.62-3.75,4.69-8.58,5.66c-0.36,0.07-0.65,0.34-0.76,0.69c-0.1,0.35-0.01,0.74,0.25,1C3.52,25.94,6.95,26.96,8,27h0.6 c1.72,0.02,3.35,0.03,5.81-1.09l0.91-0.42c2.27-1.05,5.38-2.49,7.6-2.49H23c1.96,0,4.32,0.83,6.29,1.72 C14.33,25.55,7.04,31.3,7.04,42.22C7.04,50.98,13.84,56,25.7,56c10.46,0,18.24-1.49,21.89-4.2c0.39-0.28,0.52-0.8,0.31-1.23 c-0.21-0.44-0.69-0.66-1.16-0.54l-0.52,0.14c-0.74,0.21-1.5,0.41-2.34,0.57c1.31-1.42,2.74-3.45,3.06-5.8 c3.41-0.47,5.34-3.46,7.07-6.13c1.12-1.72,2.17-3.36,3.39-3.89c0.44-0.2,0.68-0.66,0.58-1.13C57.88,33.33,57.47,33,57,33 c-1.21,0-2.61,0.36-4.23,0.78c-2.3,0.6-4.91,1.28-7.33,0.96c-0.7-0.09-1.37-0.37-2.22-0.72C41.14,33.17,38.29,32,32,32 c-7.67,0-10.42,3.76-11.38,6C20.23,38.92,20,40.11,20,41.25c0,3.97,2.51,5.75,5,5.75c2.36,0,4-1.64,4-4c0-1.62-0.87-2.55-1.51-3.24 c-0.52-0.56-0.79-0.88-0.79-1.37c0-4.06,5.25-4.39,5.3-4.39c2.5,0,3.11,0.59,4.32,1.76l0.11,0.1C37.9,37.27,39,40.26,39,42 c0,5.14-1.38,11.98-13.24,12C24.9,53.89,16,52.44,16,41c0-3.64,1.21-6.7,3.61-9.07c4.43-4.39,11.63-5.3,13.54-5.32h0.11 c0.86,0.01,3.08,0.5,5.24,0.97C41.55,28.25,45,29,47,29c9.21,0,12.56-4.45,14.17-6.59c0.22-0.3,0.41-0.55,0.58-0.75 C61.91,21.48,62,21.24,62,21C62,20.66,61.83,20.34,61.54,20.16z M27,43c0,1.25-0.75,2-2,2c-1.85,0-3-1.44-3-3.75 c0-0.87,0.17-1.79,0.46-2.46c0.41-0.97,1.26-2.29,2.98-3.3c-0.46,0.8-0.74,1.76-0.74,2.9c0,1.3,0.74,2.1,1.33,2.74 C26.65,41.79,27,42.21,27,43z M41,42c0-2.17-1.26-5.7-3.13-7.53c2.1,0.38,3.47,0.94,4.59,1.4c0.94,0.39,1.76,0.73,2.71,0.85 c2.82,0.37,5.62-0.36,8.1-1c0.17-0.04,0.34-0.09,0.51-0.13c-0.5,0.66-0.97,1.39-1.45,2.14C50.65,40.32,48.92,43,46,43 c-0.55,0-1,0.45-1,1c0,3.26-3.3,6.29-4.57,7.18c-0.36,0.25-0.51,0.7-0.38,1.12c0.04,0.14,0.11,0.26,0.2,0.37 c-1.21,0.28-2.63,0.54-4.28,0.75C39.32,51.13,41,47.31,41,42z M18.2,30.51C15.41,33.27,14,36.8,14,41c0,6.61,2.65,10.33,5.42,12.41 C14.2,52.32,9.04,49.43,9.04,42.22c0-7.86,4.2-12.63,13.05-14.58C20.71,28.41,19.37,29.35,18.2,30.51z M47,27 c-1.78,0-5.13-0.73-8.07-1.38c-0.81-0.17-1.58-0.34-2.29-0.48c-1.29-0.28-2.37-0.47-3.1-0.52c-0.48-0.26-1.11-0.6-1.85-0.97 C29.35,22.47,25.93,21,23.01,21c-2.68,0-5.92,1.47-8.53,2.68l-0.89,0.41c-2.06,0.94-3.28,0.93-4.97,0.91H8.04 c-0.38-0.01-1.41-0.29-2.4-0.67c3.77-1.3,5.49-3.46,7.3-5.72c1.25-1.57,2.61-3.27,4.83-4.95c-1.15,1.67-2.02,3.31-1.59,3.92 c0.3,0.41,0.86,0.54,1.3,0.3c4.9-2.71,9.09-4.35,12.94-5.51c-2.76,1.43-5.36,2.98-7.99,4.81c-0.41,0.28-0.55,0.82-0.32,1.27 c0.22,0.44,0.73,0.65,1.2,0.5C23.37,18.93,29.28,17,34,17c3.71,0,6.46,1.69,9.01,3.54c0.37,0.27,0.74,0.54,1.1,0.81 c0.19,0.14,0.37,0.27,0.55,0.41C46.99,23.48,49.26,25,52,25c1.43,0,3.44-0.63,5.51-1.45C55.62,25.29,52.53,27,47,27z"/><linearGradient id="t75HyvfA2xbCxktK9gTYLb" x1="24.325" x2="24.325" y1="12.37" y2="25.005" gradientUnits="userSpaceOnUse" spreadMethod="reflect"><stop offset="0" stop-color="#6dc7ff"/><stop offset="1" stop-color="#e6abff"/></linearGradient><path fill="url(#t75HyvfA2xbCxktK9gTYLb)" d="M43.01,20.54c-2.52,2.3-6.33,2.64-9.41,2.91c-0.68,0.06-1.32,0.12-1.91,0.2 C29.35,22.47,25.93,21,23.01,21c-2.68,0-5.92,1.47-8.53,2.68l-0.89,0.41c-2.06,0.94-3.28,0.93-4.97,0.91H8.04 c-0.38-0.01-1.41-0.29-2.4-0.67c3.77-1.3,5.49-3.46,7.3-5.72c1.25-1.57,2.61-3.27,4.83-4.95c-1.15,1.67-2.02,3.31-1.59,3.92 c0.3,0.41,0.86,0.54,1.3,0.3c4.9-2.71,9.09-4.35,12.94-5.51c-2.76,1.43-5.36,2.98-7.99,4.81c-0.41,0.28-0.55,0.82-0.32,1.27 c0.22,0.44,0.73,0.65,1.2,0.5C23.37,18.93,29.28,17,34,17C37.71,17,40.46,18.69,43.01,20.54z"/><linearGradient id="t75HyvfA2xbCxktK9gTYLc" x1="15.565" x2="15.565" y1="27.64" y2="53.41" gradientUnits="userSpaceOnUse" spreadMethod="reflect"><stop offset="0" stop-color="#6dc7ff"/><stop offset="1" stop-color="#e6abff"/></linearGradient><path fill="url(#t75HyvfA2xbCxktK9gTYLc)" d="M19.42,53.41C14.2,52.32,9.04,49.43,9.04,42.22c0-7.86,4.2-12.63,13.05-14.58 c-1.38,0.77-2.72,1.71-3.89,2.87C15.41,33.27,14,36.8,14,41C14,47.61,16.65,51.33,19.42,53.41z"/><linearGradient id="t75HyvfA2xbCxktK9gTYLd" x1="24.5" x2="24.5" y1="35.49" y2="45" gradientUnits="userSpaceOnUse" spreadMethod="reflect"><stop offset="0" stop-color="#6dc7ff"/><stop offset="1" stop-color="#e6abff"/></linearGradient><path fill="url(#t75HyvfA2xbCxktK9gTYLd)" d="M27,43c0,1.25-0.75,2-2,2c-1.85,0-3-1.44-3-3.75c0-0.87,0.17-1.79,0.46-2.46 c0.41-0.97,1.26-2.29,2.98-3.3c-0.46,0.8-0.74,1.76-0.74,2.9c0,1.3,0.74,2.1,1.33,2.74C26.65,41.79,27,42.21,27,43z"/><linearGradient id="t75HyvfA2xbCxktK9gTYLe" x1="37.2" x2="37.2" y1="8.366" y2="55.525" gradientUnits="userSpaceOnUse" spreadMethod="reflect"><stop offset="0" stop-color="#1a6dff"/><stop offset="1" stop-color="#c822ff"/></linearGradient><path fill="url(#t75HyvfA2xbCxktK9gTYLe)" d="M44.71,21.71l-0.05,0.05c-2.22,2.19-5.25,2.99-8.02,3.38c-1.01,0.14-1.98,0.23-2.86,0.31 c-1.43,0.12-2.66,0.23-3.47,0.5l-0.62-1.9c0.58-0.19,1.25-0.31,2-0.4c0.59-0.08,1.23-0.14,1.91-0.2c3.08-0.27,6.89-0.61,9.41-2.91 c0.1-0.07,0.19-0.16,0.28-0.25L44.71,21.71z"/></svg>