<svg fill="#000000" xmlns="http://www.w3.org/2000/svg"  viewBox="0 0 64 64" width="100px" height="100px"><path d="M 3 8 C 2.448 8 2 8.447 2 9 L 2 15 C 2 15.553 2.448 16 3 16 L 5.6015625 16 C 6.7105625 16 7.7250469 16.608891 8.2480469 17.587891 L 10.498047 21.800781 C 7.050475 23.86684 5 26.454889 5 29.308594 C 5 30.170594 5.3129375 31.133766 5.8359375 31.884766 C 5.8599375 31.918766 5.8850625 31.952375 5.9140625 31.984375 L 6.0078125 32.080078 C 8.2288125 34.969078 8.1556719 37.124016 8.0136719 41.416016 L 8 41.816406 C 7.996 41.945406 8 43.003906 8 43.003906 L 8 43.005859 L 8 43.015625 C 8 43.061625 8.0193906 43.101484 8.0253906 43.146484 C 8.0363906 43.220484 8.0433125 43.294281 8.0703125 43.363281 C 8.1083125 43.466281 8.1683281 43.554672 8.2363281 43.638672 C 8.2423281 43.645672 8.2430469 43.654156 8.2480469 43.660156 C 8.2490469 43.662156 8.2529062 43.663062 8.2539062 43.664062 C 8.2889063 43.704062 8.3252344 43.737484 8.3652344 43.771484 C 9.0302344 44.476484 9.9315625 44.998047 10.976562 44.998047 C 11.823562 44.998047 12.757656 44.6605 13.722656 43.8125 C 15.252656 42.4675 15.298172 40.851719 15.326172 39.886719 C 15.334172 39.612719 15.231781 39.354062 15.050781 39.164062 C 16.286781 39.363062 17.416219 39.947313 18.199219 40.445312 C 18.398219 40.571312 18.58925 40.712563 18.78125 40.851562 C 19.16725 41.133562 19.568875 41.424344 20.046875 41.652344 C 20.486828 41.861481 20.895706 41.943712 21.277344 41.990234 L 29.009766 56.470703 C 29.184766 56.796703 29.522578 57 29.892578 57 L 35.826172 57 C 36.214172 57 36.567422 56.774828 36.732422 56.423828 L 43.597656 41.742188 C 43.717664 41.733466 43.837683 41.708555 43.953125 41.654297 C 44.432125 41.426297 44.83275 41.135516 45.21875 40.853516 C 45.41075 40.713516 45.600781 40.572312 45.800781 40.445312 C 46.583781 39.947313 47.716172 39.365969 48.951172 39.167969 C 48.769172 39.356969 48.665828 39.613672 48.673828 39.888672 C 48.701828 40.853672 48.747344 42.469453 50.277344 43.814453 C 51.242344 44.662453 52.176437 45 53.023438 45 C 53.981437 45 54.814938 44.555453 55.460938 43.939453 C 55.777938 43.771453 56 43.450406 56 43.066406 C 56 43.050406 55.998047 43.033578 55.998047 43.017578 C 55.998047 43.012578 56 43.009859 56 43.005859 C 56 43.005859 56.003 41.945406 56 41.816406 L 55.986328 41.417969 C 55.843328 37.125969 55.773359 34.971531 57.943359 32.144531 L 58.085938 31.986328 C 58.113937 31.955328 58.140062 31.921719 58.164062 31.886719 C 58.687062 31.133719 59 30.170594 59 29.308594 C 59 26.3289 56.782265 23.631102 53.052734 21.523438 L 54.828125 17.728516 C 55.319125 16.678516 56.384922 16 57.544922 16 L 61 16 C 61.552 16 62 15.553 62 15 L 62 9 C 62 8.447 61.552 8 61 8 L 39 8 C 38.448 8 38 8.447 38 9 L 38 15 C 38 15.553 38.448 16 39 16 L 40.732422 16 C 41.434422 16 42.051781 16.341547 42.425781 16.935547 C 42.626393 17.254626 42.716222 17.606835 42.714844 17.974609 C 39.4444 17.346276 35.828739 16.998047 32 16.998047 C 31.583994 16.998047 31.180406 17.017307 30.769531 17.025391 C 30.779089 17.008284 30.782792 16.989556 30.792969 16.972656 C 31.156969 16.363656 31.798813 16 32.507812 16 L 34 16 C 34.552 16 35 15.553 35 15 L 35 9 C 35 8.447 34.552 8 34 8 L 3 8 z M 4 10 L 33 10 L 33 14 L 32.507812 14 C 31.088812 14 29.805172 14.726359 29.076172 15.943359 C 28.857031 16.309773 28.709645 16.700267 28.617188 17.099609 C 25.101695 17.292101 21.812145 17.774889 18.873047 18.505859 L 16.808594 14.517578 C 16.555594 14.028578 15.951937 13.836844 15.460938 14.089844 C 14.969938 14.343844 14.77725 14.9455 15.03125 15.4375 L 16.900391 19.048828 C 15.196537 19.564667 13.649975 20.171301 12.257812 20.847656 L 10.013672 16.646484 C 9.1416719 15.014484 7.4505625 14 5.6015625 14 L 4 14 L 4 10 z M 40 10 L 60 10 L 60 14 L 57.544922 14 C 55.611922 14 53.834625 15.132812 53.015625 16.882812 L 51.271484 20.611328 C 49.359553 19.730407 47.147416 18.987712 44.707031 18.40625 C 44.798931 17.531644 44.603457 16.641407 44.117188 15.869141 C 43.381188 14.699141 42.115422 14 40.732422 14 L 40 14 L 40 10 z M 32 18.998047 C 45.551 18.998047 57 23.720594 57 29.308594 C 57 29.746594 56.825734 30.287266 56.552734 30.697266 L 56.408203 30.861328 C 54.473203 33.376328 53.999453 35.495641 53.939453 38.181641 C 50.202453 33.955641 41.777 31 32 31 C 21.683 31 13.644734 33.635547 10.052734 37.810547 C 9.9537344 35.291547 9.4220156 33.243781 7.5410156 30.800781 L 7.4433594 30.693359 C 7.1723594 30.282359 7 29.745594 7 29.308594 C 7 23.720594 18.449 18.998047 32 18.998047 z M 32.486328 21.021484 C 31.864072 21.017831 31.227582 21.027261 30.585938 21.050781 C 28.12408 21.044363 26.394834 21.249171 24.75 21.449219 L 24.734375 22.400391 L 25.107422 22.394531 C 25.609422 22.391531 26.021484 22.800734 26.021484 23.302734 L 26.021484 27.587891 C 26.021484 28.068891 25.674172 28.481359 25.201172 28.568359 C 25.042172 28.597359 24.888281 28.628203 24.738281 28.658203 L 24.738281 29.478516 C 26.872281 29.198516 28.850609 29.036609 31.349609 28.974609 L 31.349609 28.154297 L 30.876953 28.095703 C 30.375953 28.031703 30 27.605563 30 27.101562 L 30 23.005859 C 30 22.457859 30.436375 22.010906 30.984375 22.003906 C 31.152375 22.001906 31.324 22.001 31.5 22 L 31.5 21.990234 C 31.50326 21.990264 31.506505 21.990205 31.509766 21.990234 C 31.905766 21.994234 32.262922 22.233656 32.419922 22.597656 L 35.226562 29.109375 L 37.636719 29.314453 L 40.130859 23.380859 C 40.307582 22.960795 40.742546 22.735915 41.1875 22.789062 L 41.386719 22.837891 C 41.835719 22.946891 42.150391 23.348547 42.150391 23.810547 L 42.150391 28.03125 C 42.150391 28.64625 41.599187 29.114625 40.992188 29.015625 C 40.811188 28.986625 40.632125 28.958594 40.453125 28.933594 L 40.453125 29.755859 C 42.935125 30.273859 45.502875 30.918906 48.171875 32.128906 L 48.171875 32.126953 C 48.602875 32.328953 49.033797 32.527766 49.466797 32.759766 L 49.466797 28.677734 L 45.957031 30.318359 L 45.957031 26.876953 L 47.5625 29 L 47.5625 25.267578 C 48.195088 26.011171 48.829751 26.870834 49.466797 27.763672 L 49.466797 24.017578 C 48.196797 23.516578 46.844031 23.100938 45.957031 22.835938 C 44.848031 22.503937 42.236016 21.947547 42.166016 21.935547 C 42.038595 21.912687 41.881376 21.885248 41.648438 21.84375 C 40.055209 21.499986 38.543249 21.348879 37.59375 21.271484 L 37.601562 22.273438 C 37.601562 22.273438 38.073125 22.314188 38.578125 22.367188 C 38.816125 22.392187 39.154578 22.640969 39.017578 23.042969 C 38.725578 23.894969 37.613281 26.359375 37.613281 26.359375 L 36.121094 23.097656 C 36.121094 23.097656 35.5465 22.093922 36.5625 22.169922 L 37.59375 22.238281 L 37.59375 21.271484 L 37.59375 21.255859 C 36.201 21.153859 34.410641 21.032781 32.486328 21.021484 z M 24.507812 21.498047 C 24.507812 21.498047 21.3895 21.975391 19.6875 22.400391 C 18.5855 22.675391 16.119047 23.387953 14.998047 23.876953 L 14.998047 24.529297 L 15.998047 24.529297 C 16.550047 24.529297 16.998047 24.977297 16.998047 25.529297 L 16.998047 29.816406 C 16.998047 30.218406 16.756719 30.576328 16.386719 30.736328 C 15.916719 30.939328 15.445047 31.157625 14.998047 31.390625 L 14.998047 32.212891 C 17.509047 31.111891 20.212047 30.184438 22.998047 29.773438 L 22.998047 28.953125 C 22.702047 28.982125 22.435828 29.015641 22.173828 29.056641 C 21.569828 29.149641 21.027344 28.679359 21.027344 28.068359 L 21.027344 26.472656 L 22.505859 27.611328 L 22.505859 23.710938 L 21.027344 25.240234 L 21.027344 22.998047 C 22.179344 23.225047 23.341813 24.088172 24.507812 25.201172 L 24.507812 21.498047 z M 45.957031 23.703125 C 46.455921 24.061379 46.958086 24.574111 47.460938 25.154297 L 45.957031 26.001953 L 45.957031 23.703125 z M 32 33 C 32.819179 33 33.61409 33.02929 34.398438 33.068359 L 36.0625 37.113281 C 36.2185 37.493281 36.583859 37.729422 37.005859 37.732422 C 37.417859 37.724422 37.782781 37.464125 37.925781 37.078125 L 39.21875 33.576172 C 41.177427 33.895463 42.981144 34.334531 44.601562 34.873047 L 35.189453 55 L 30.492188 55 L 22.849609 40.6875 C 22.844469 40.674199 22.835765 40.663413 22.830078 40.650391 L 19.625 34.648438 C 21.095766 34.20677 22.70385 33.848851 24.419922 33.578125 L 28.820312 42.080078 C 28.998313 42.423078 29.348938 42.619141 29.710938 42.619141 C 29.865938 42.619141 30.021969 42.583813 30.167969 42.507812 C 30.659969 42.253813 30.851656 41.651156 30.597656 41.160156 L 26.523438 33.289062 C 28.262263 33.099978 30.094861 33 32 33 z M 36.630859 33.240234 C 36.816816 33.258756 37.011715 33.268394 37.195312 33.289062 L 36.9375 33.984375 L 36.630859 33.240234 z M 17.705078 35.302734 L 19.714844 39.066406 C 19.568518 38.961537 19.423407 38.852665 19.273438 38.757812 C 18.122438 38.025813 16.333469 37.143656 14.355469 37.097656 C 14.243469 37.095656 14.142203 37.102516 14.033203 37.103516 C 15.080877 36.430565 16.321448 35.830174 17.705078 35.302734 z M 46.484375 35.570312 C 47.613317 36.039367 48.642653 36.553611 49.537109 37.107422 C 47.786 37.175294 46.215977 37.882525 45.091797 38.548828 L 46.484375 35.570312 z M 13.673828 39.105469 C 13.631828 39.141469 13.591641 39.179656 13.556641 39.222656 C 13.209641 39.643656 12.511344 40.299672 12.152344 40.388672 C 11.944344 40.439672 11.797094 40.409469 11.746094 40.355469 C 11.706094 40.313469 11.681234 40.197859 11.740234 40.005859 C 11.852234 39.641859 12.181828 39.175469 13.673828 39.105469 z M 50.326172 39.105469 C 51.818172 39.175469 52.147766 39.641859 52.259766 40.005859 C 52.318766 40.196859 52.293906 40.313469 52.253906 40.355469 C 52.202906 40.409469 52.055656 40.440672 51.847656 40.388672 C 51.523656 40.308672 50.846406 39.709656 50.441406 39.222656 C 50.406406 39.180656 50.367172 39.141469 50.326172 39.105469 z M 10.214844 41.628906 C 10.242844 41.661906 10.263969 41.699469 10.292969 41.730469 C 10.790969 42.256469 11.526594 42.492625 12.308594 42.390625 C 11.446594 43.112625 10.716016 43.187094 10.041016 42.621094 C 10.067016 42.284094 10.123844 41.953906 10.214844 41.628906 z M 53.742188 41.683594 C 53.847187 41.998594 53.915219 42.312953 53.949219 42.626953 C 53.277219 43.183953 52.548453 43.108625 51.689453 42.390625 C 52.470453 42.494625 53.209031 42.256469 53.707031 41.730469 C 53.720031 41.716469 53.729187 41.697594 53.742188 41.683594 z M 31.470703 44.175781 C 31.341031 44.185641 31.212844 44.221906 31.089844 44.285156 C 30.598844 44.539156 30.406156 45.140813 30.660156 45.632812 L 31.777344 47.792969 C 31.955344 48.135969 32.305969 48.332031 32.667969 48.332031 C 32.822969 48.332031 32.979 48.296703 33.125 48.220703 C 33.616 47.966703 33.808687 47.365047 33.554688 46.873047 L 32.4375 44.712891 C 32.24775 44.346891 31.859719 44.146203 31.470703 44.175781 z M 7 52 C 6.448 52 6 52.447 6 53 L 6 55 C 6 55.553 6.448 56 7 56 C 7.552 56 8 55.553 8 55 L 8 53 C 8 52.447 7.552 52 7 52 z M 12 52 C 11.448 52 11 52.447 11 53 L 11 55 C 11 55.553 11.448 56 12 56 C 12.552 56 13 55.553 13 55 L 13 53 C 13 52.447 12.552 52 12 52 z M 17 52 C 16.448 52 16 52.447 16 53 L 16 55 C 16 55.553 16.448 56 17 56 C 17.552 56 18 55.553 18 55 L 18 53 C 18 52.447 17.552 52 17 52 z M 22 52 C 21.448 52 21 52.447 21 53 L 21 55 C 21 55.553 21.448 56 22 56 C 22.552 56 23 55.553 23 55 L 23 53 C 23 52.447 22.552 52 22 52 z M 42 52 C 41.448 52 41 52.447 41 53 L 41 55 C 41 55.553 41.448 56 42 56 C 42.552 56 43 55.553 43 55 L 43 53 C 43 52.447 42.552 52 42 52 z M 47 52 C 46.448 52 46 52.447 46 53 L 46 55 C 46 55.553 46.448 56 47 56 C 47.552 56 48 55.553 48 55 L 48 53 C 48 52.447 47.552 52 47 52 z M 52 52 C 51.448 52 51 52.447 51 53 L 51 55 C 51 55.553 51.448 56 52 56 C 52.552 56 53 55.553 53 55 L 53 53 C 53 52.447 52.552 52 52 52 z M 57 52 C 56.448 52 56 52.447 56 53 L 56 55 C 56 55.553 56.448 56 57 56 C 57.552 56 58 55.553 58 55 L 58 53 C 58 52.447 57.552 52 57 52 z"/></svg>