<svg xmlns="http://www.w3.org/2000/svg"  viewBox="0 0 64 64" width="100px" height="100px"><linearGradient id="cgILivgqPeK5DyUQPAsNna" x1="32.217" x2="32.217" y1="11" y2="55" gradientUnits="userSpaceOnUse" spreadMethod="reflect"><stop offset="0" stop-color="#1a6dff"/><stop offset="1" stop-color="#c822ff"/></linearGradient><path fill="url(#cgILivgqPeK5DyUQPAsNna)" d="M59.34,23.58l-5.49-12C53.69,11.23,53.33,11,52.94,11h-13.4c-0.44,0-0.83,0.29-0.96,0.71 L37.26,16H34c-0.46,0-0.86,0.31-0.97,0.76L32.97,17l-4.14-5.59c-0.18-0.25-0.48-0.4-0.8-0.4L16.09,11c-0.43,0-0.82,0.28-0.95,0.7 L5.05,43.58c-0.03,0.09-0.02,0.19-0.02,0.3C5.02,43.92,5,43.96,5,44c0,0.34,0.18,0.63,0.44,0.81l7.19,9.78 c0.18,0.26,0.48,0.41,0.8,0.41h12c0.01,0,0.01,0,0.01,0c0.1,0,0.19-0.02,0.28-0.05c0.03,0,0.06-0.02,0.09-0.03 c0.06-0.03,0.12-0.06,0.18-0.1c0.01-0.01,0.03-0.01,0.04-0.02c0.01-0.01,0.02-0.02,0.03-0.04c0.08-0.06,0.14-0.13,0.2-0.21 c0.01-0.02,0.03-0.04,0.04-0.06s0.02-0.02,0.02-0.03l3.35-6.57l0.53,0.7c0.09,0.13,0.21,0.23,0.35,0.3c0.13,0.07,0.27,0.09,0.41,0.1 c0.01,0,0.03,0.01,0.04,0.01h2.49l4.06,5.59c0.19,0.26,0.49,0.41,0.81,0.41h13.07c0.11,0,0.22-0.02,0.32-0.06 c0.05-0.01,0.09-0.04,0.13-0.06c0.05-0.02,0.1-0.04,0.15-0.08c0,0,0,0,0.01-0.01c0.09-0.07,0.18-0.16,0.24-0.27 c0.02-0.03,0.03-0.06,0.04-0.1c0.03-0.06,0.07-0.12,0.09-0.19l7-30C59.46,24.01,59.43,23.79,59.34,23.58z M40.28,13h11.25 l-3.07,11.11C48.32,24.04,48.17,24,48,24h-6.72l1.69-6.76c0.07-0.3,0.01-0.61-0.18-0.86C42.6,16.14,42.31,16,42,16h-2.65L40.28,13z M34.39,19.54c0.01,0,0.01-0.01,0.01-0.01L34.78,18h5.94l-1.5,6h-5.94L34.39,19.54z M27.39,13.01h0.14l4.81,6.5L31.22,24h-3.04 l0.81-4.84c0.05-0.29-0.04-0.58-0.23-0.81C28.57,18.13,28.29,18,28,18h-2.05L27.39,13.01z M16.83,13h8.47l-1.43,5h-8.63L16.83,13z M14.61,20h12.21l-0.81,4.84c-0.05,0.29,0.04,0.58,0.23,0.81C26.43,25.87,26.71,26,27,26h20.94l-4.7,16.99L34.35,43l3.61-11.71 c0.09-0.3,0.03-0.63-0.16-0.88C37.62,30.15,37.32,30,37,30h-5c-0.44,0-0.83,0.29-0.96,0.71l-2.24,7.3h-3.23l1.41-6.81 c0.06-0.29-0.01-0.6-0.2-0.83C26.59,30.14,26.3,30,26,30h-3.98c-0.08,0-0.14,0.01-0.22,0.02c-0.14,0.03-0.28,0.09-0.4,0.18 c-0.11,0.08-0.21,0.19-0.28,0.32c-0.03,0.07-0.06,0.14-0.08,0.21L19.72,35h-4.44l0.53-2.14c0.12-0.45,0.02-0.92-0.27-1.28 C15.26,31.21,14.83,31,14.36,31h-3.23L14.61,20z M19.11,37l-0.62,2h-4.21l0.5-2H19.11z M10.49,33h3.23l-0.53,2.14 c-0.05,0.17-0.06,0.35-0.04,0.52c-0.1,0.14-0.17,0.3-0.21,0.48l-0.75,3c-0.12,0.45-0.02,0.92,0.27,1.28 c0.28,0.37,0.71,0.58,1.18,0.58h4.24l-0.62,2H7.33L10.49,33z M13.94,53l-5.87-8h9.45l5.93,8H13.94z M25.27,52.11l-6.16-8.32 L22.74,32h2.03l-1.41,6.8v0.03c-0.02,0.14-0.02,0.28,0.01,0.41c0,0.01,0,0.01,0,0.01c0.03,0.12,0.09,0.24,0.17,0.35l4.8,6.49 L25.27,52.11z M38.87,53l-4.06-5.59C34.62,47.15,34.32,47,34,47h-2.5l-1.18-1.6l-4-5.39h3.22c0.44,0,0.82-0.29,0.95-0.71l2.25-7.3 h2.91l-3.61,11.71c-0.09,0.3-0.03,0.63,0.16,0.88C32.38,44.85,32.68,45,33,45l10.51-0.02L49.45,53H38.87z M50.95,51.67l-5.85-7.9 l8.01-28.99l4.27,9.33L50.95,51.67z"/><linearGradient id="cgILivgqPeK5DyUQPAsNnb" x1="51.24" x2="51.24" y1="14.78" y2="51.67" gradientUnits="userSpaceOnUse" spreadMethod="reflect"><stop offset="0" stop-color="#6dc7ff"/><stop offset="1" stop-color="#e6abff"/></linearGradient><path fill="url(#cgILivgqPeK5DyUQPAsNnb)" d="M57.38 24.11L50.95 51.67 45.1 43.77 53.11 14.78z"/><linearGradient id="cgILivgqPeK5DyUQPAsNnc" x1="29.145" x2="29.145" y1="13.01" y2="24" gradientUnits="userSpaceOnUse" spreadMethod="reflect"><stop offset="0" stop-color="#6dc7ff"/><stop offset="1" stop-color="#e6abff"/></linearGradient><path fill="url(#cgILivgqPeK5DyUQPAsNnc)" d="M32.34,19.51L31.22,24h-3.04l0.81-4.84c0.05-0.29-0.04-0.58-0.23-0.81 C28.57,18.13,28.29,18,28,18h-2.05l1.44-4.99h0.14L32.34,19.51z"/><linearGradient id="cgILivgqPeK5DyUQPAsNnd" x1="23.725" x2="23.725" y1="32" y2="52.11" gradientUnits="userSpaceOnUse" spreadMethod="reflect"><stop offset="0" stop-color="#6dc7ff"/><stop offset="1" stop-color="#e6abff"/></linearGradient><path fill="url(#cgILivgqPeK5DyUQPAsNnd)" d="M28.34,46.09l-3.07,6.02l-6.16-8.32L22.74,32h2.03l-1.41,6.8v0.03 c-0.02,0.14-0.02,0.28,0.01,0.41c0,0.01,0,0.01,0,0.01c0.03,0.12,0.09,0.24,0.17,0.35L28.34,46.09z"/></svg>