<svg xmlns="http://www.w3.org/2000/svg"  viewBox="0 0 64 64" width="100px" height="100px"><linearGradient id="cRpEQ0jM8e6Gz1ySr2JpMa" x1="16.99" x2="16.99" y1="36.97" y2="41.93" gradientUnits="userSpaceOnUse" spreadMethod="reflect"><stop offset="0" stop-color="#6dc7ff"/><stop offset="1" stop-color="#e6abff"/></linearGradient><path fill="url(#cRpEQ0jM8e6Gz1ySr2JpMa)" d="M24,38.32c-3.15,1.26-7.49,2.98-8.09,3.18c-0.34,0.14-0.66,0.28-0.95,0.43l-4.98-1.56l9.7-3.4 L24,38.32z"/><linearGradient id="cRpEQ0jM8e6Gz1ySr2JpMb" x1="37.14" x2="37.14" y1="41.76" y2="44.37" gradientUnits="userSpaceOnUse" spreadMethod="reflect"><stop offset="0" stop-color="#6dc7ff"/><stop offset="1" stop-color="#e6abff"/></linearGradient><path fill="url(#cRpEQ0jM8e6Gz1ySr2JpMb)" d="M39.28,43.1c-2.16,0.62-3.51,1.03-4.28,1.27v-2.61L39.28,43.1z"/><linearGradient id="cRpEQ0jM8e6Gz1ySr2JpMc" x1="44.615" x2="44.615" y1="45.6" y2="50.36" gradientUnits="userSpaceOnUse" spreadMethod="reflect"><stop offset="0" stop-color="#6dc7ff"/><stop offset="1" stop-color="#e6abff"/></linearGradient><path fill="url(#cRpEQ0jM8e6Gz1ySr2JpMc)" d="M51.74,47l-0.23,0.08l-9.6,3.28l-4.42-1.38c3.24-1.12,8.29-2.86,9.78-3.38L51.74,47z"/><linearGradient id="cRpEQ0jM8e6Gz1ySr2JpMd" x1="32.003" x2="32.003" y1="7.999" y2="55" gradientUnits="userSpaceOnUse" spreadMethod="reflect"><stop offset="0" stop-color="#1a6dff"/><stop offset="1" stop-color="#c822ff"/></linearGradient><path fill="url(#cRpEQ0jM8e6Gz1ySr2JpMd)" d="M60.989,42.694c-0.155-1.798-1.91-3.194-5.345-4.262c-3.188-1.068-6.601-1.543-10.154-1.411 c-3.176,0.123-6.281,0.633-9.188,1.504l-1.298,0.332l-0.027-19.716c0.011-0.011,0.115-0.063,0.274-0.063 c1.274,0,1.75,1.332,1.75,2.172v11.74c0,0.314,0.148,0.611,0.4,0.8c0.165,0.124,1.712,1.21,5.097,1.21C45.464,35,49,33.352,49,25.5 c0-6.402-3.336-11.048-9.646-13.436C34.723,10.312,25.62,8.12,25.234,8.027c-0.298-0.072-0.612-0.003-0.853,0.188 C24.142,8.404,24.001,8.693,24.001,9v24.3l-3.41,1.238l-10.864,3.77l-1.931,0.711c-2.999,1.345-4.79,3.306-4.79,5.246 c0,2.21,0.853,3.99,2.465,5.15c1.475,1.061,3.535,1.589,6.122,1.589c3.084,0,6.916-0.753,11.386-2.253 c0.257-0.084,0.64-0.214,1.022-0.344v2.824c0,0.439,0.286,0.826,0.706,0.956l8.999,2.77C33.803,54.985,33.901,55,34,55 c0.056,0,0.109-0.017,0.164-0.026C34.22,54.984,34.274,55,34.332,55c0.106,0,0.215-0.017,0.321-0.053l20.033-6.835l1.458-0.655 C58.505,46.574,61.189,45.236,60.989,42.694z M35.002,46.475c0.587-0.194,2.71-0.875,7.465-2.19 c3.185-0.881,5.032-1.168,6.035-1.252c-0.499,0.188-1.105,0.406-1.819,0.653c-1.701,0.592-8.998,3.103-11.681,4.026L35.002,46.475z M24.001,42.015c-1.112,0.471-3.52,1.484-5.212,2.14c-2.988,1.18-4.25,0.85-4.635,0.681c0.264-0.291,0.915-0.833,2.438-1.459 c0.632-0.199,5.067-1.964,7.409-2.899V42.015z M22.35,46.853c-7.48,2.511-13.062,2.844-15.711,0.938 c-1.099-0.79-1.633-1.943-1.633-3.526c0-0.869,1.129-2.31,3.544-3.396l12.711-4.446l2.74-0.996v2.896 c-3.148,1.26-7.489,2.981-8.089,3.173c-2.439,1-3.789,2.146-3.904,3.313c-0.048,0.488,0.133,0.943,0.489,1.249 c0.305,0.337,1.078,0.943,2.708,0.943c1.049,0,2.452-0.251,4.312-0.985c1.383-0.536,3.231-1.304,4.483-1.831v2.106 C23.471,46.474,22.758,46.72,22.35,46.853z M33,52.646l-6.999-2.153l-0.025-40.217c2.689,0.671,9.144,2.326,12.67,3.66 C44.189,16.032,47,19.924,47,25.5c0,6.723-2.57,7.5-4.503,7.5c-1.813,0-2.946-0.364-3.497-0.604V21.25 c0-2.051-1.402-4.172-3.75-4.172c-1.304,0-2.25,0.894-2.25,2.125V52.646z M55.385,45.608l-1.431,0.646L35,52.715l0.001-2.888 c1.823-0.627,10.466-3.601,12.337-4.251c3.331-1.152,5.003-1.73,4.619-3.178c-0.03-0.114-0.081-0.223-0.15-0.32 c-0.42-0.595-1.021-0.905-1.919-1.022c-0.3-0.066-2.085-0.322-7.954,1.302c-3.772,1.043-5.888,1.685-6.931,2.015l0.001-3.452 l1.833-0.469c2.786-0.834,5.724-1.315,8.73-1.433c3.312-0.121,6.483,0.317,9.464,1.316c3.477,1.08,3.932,2.129,3.966,2.522 C59.042,43.441,58.724,44.357,55.385,45.608z"/></svg>