<svg xmlns="http://www.w3.org/2000/svg"  viewBox="0 0 64 64" width="100px" height="100px"><linearGradient id="ylrMPbggYAMAnP4cE0Amfa" x1="32" x2="32" y1="9" y2="55" gradientUnits="userSpaceOnUse" spreadMethod="reflect"><stop offset="0" stop-color="#1a6dff"/><stop offset="1" stop-color="#c822ff"/></linearGradient><path fill="url(#ylrMPbggYAMAnP4cE0Amfa)" d="M46.694,11C50.171,11,53,13.829,53,17.306v29.389C53,50.171,50.171,53,46.694,53H17.306 C13.829,53,11,50.171,11,46.694V17.306C11,13.829,13.829,11,17.306,11H46.694 M46.694,9H17.306C12.718,9,9,12.718,9,17.306v29.389 C9,51.282,12.718,55,17.306,55h29.389C51.282,55,55,51.282,55,46.694V17.306C55,12.718,51.282,9,46.694,9L46.694,9z"/><linearGradient id="ylrMPbggYAMAnP4cE0Amfb" x1="40.434" x2="40.434" y1="9.125" y2="54.483" gradientUnits="userSpaceOnUse" spreadMethod="reflect"><stop offset="0" stop-color="#1a6dff"/><stop offset="1" stop-color="#c822ff"/></linearGradient><path fill="url(#ylrMPbggYAMAnP4cE0Amfb)" d="M30.203,49.481l3.951-8.685L29.72,36.01l7.152-0.031l4.69-7.823l1.304,7.82h8.281 l-7.509,5.306l1.196,7.888l-6.146-4.714L30.203,49.481z M38.833,42.045l3.28,2.517l-0.637-4.2l3.375-2.386h-3.68l-0.688-4.131 l-2.476,4.128L34.28,37.99l2.245,2.424l-1.867,4.104L38.833,42.045z"/><linearGradient id="ylrMPbggYAMAnP4cE0Amfc" x1="27.063" x2="27.063" y1="16.028" y2="36.002" gradientUnits="userSpaceOnUse" spreadMethod="reflect"><stop offset="0" stop-color="#6dc7ff"/><stop offset="1" stop-color="#e6abff"/></linearGradient><path fill="url(#ylrMPbggYAMAnP4cE0Amfc)" d="M29.717,36.001l-0.177-0.383c-0.037-0.08-0.355-0.819-0.191-2.168 c0.267-2.193,0.071-3.312-0.474-3.939c-0.297-0.342-0.766-0.509-1.436-0.509L24.055,29l-1.241,6h-5.689l3.944-18.972h9.19 c1.898,0,4.253,0.193,5.617,1.696c0.88,0.971,1.238,2.326,1.093,4.145c-0.257,3.215-2.052,4.435-3.357,4.946 c0.804,0.744,1.576,1.8,1.356,4.007c-0.279,2.809,0.017,3.825,0.217,4.181L35.75,36l-6.033,0.002V36.001z M28.84,24.445 c0.795,0,2.179-0.248,2.513-1.903c0.114-0.565,0.054-0.999-0.181-1.289c-0.252-0.313-0.739-0.494-1.339-0.494h-3.967l-0.772,3.684 h3.746V24.445z"/></svg>