<svg xmlns="http://www.w3.org/2000/svg"  viewBox="0 0 64 64" width="100px" height="100px"><linearGradient id="nFpCbXqqIBwUHrVRTC434a" x1="8.875" x2="8.875" y1="3.323" y2="60.572" gradientUnits="userSpaceOnUse"><stop offset="0" stop-color="#1a6dff"/><stop offset="1" stop-color="#c822ff"/></linearGradient><path fill="url(#nFpCbXqqIBwUHrVRTC434a)" d="M8.617,23.236c-0.345,0.06-0.694,0.092-1.043,0.094l-1.628,0.009	c-0.939,0.013-1.878-0.238-2.679-0.739l-1.064-0.639l0.008,0.008l-0.007-0.006l0.641,1.058c0.492,0.811,0.748,1.743,0.739,2.691	L3.57,27.325c-0.003,0.355-0.036,0.708-0.097,1.058l-1.381,7.885c-0.573,3.275,1.593,6.401,4.861,7.014l1.495,0.28l2.538,0.044	l-2.318-0.543c-2.872-0.839-4.341-3.597-3.747-6.53l0.072-0.355l1.192-3.998l0.442-1.609c0.353-1.288,0.347-2.648-0.02-3.932	l-0.109-0.381l-0.004-0.005l0.002,0.002l0.388,0.113c1.277,0.363,2.642,0.376,3.931,0.013l1.602-0.438l2.504-0.739l0.826-3.218	L8.617,23.236z"/><linearGradient id="nFpCbXqqIBwUHrVRTC434b" x1="55.125" x2="55.125" y1="3.323" y2="60.572" gradientUnits="userSpaceOnUse"><stop offset="0" stop-color="#1a6dff"/><stop offset="1" stop-color="#c822ff"/></linearGradient><path fill="url(#nFpCbXqqIBwUHrVRTC434b)" d="M55.383,23.236c0.345,0.06,0.694,0.092,1.043,0.094l1.628,0.009	c0.939,0.013,1.878-0.238,2.679-0.739l1.064-0.639l-0.008,0.008l0.007-0.006l-0.641,1.058c-0.492,0.811-0.748,1.743-0.739,2.691	l0.015,1.613c0.003,0.355,0.036,0.708,0.097,1.058l1.381,7.885c0.573,3.275-1.593,6.401-4.861,7.014l-1.495,0.28l-2.538,0.044	l2.318-0.543c2.872-0.839,4.341-3.597,3.747-6.53l-0.072-0.355l-1.192-3.998l-0.442-1.609c-0.353-1.288-0.347-2.648,0.02-3.932	l0.109-0.381l0.004-0.005l-0.002,0.002l-0.388,0.113c-1.277,0.363-2.642,0.376-3.931,0.013l-1.602-0.438l-2.504-0.739l-0.826-3.218	L55.383,23.236z"/><linearGradient id="nFpCbXqqIBwUHrVRTC434c" x1="32" x2="32" y1="3.323" y2="60.572" gradientUnits="userSpaceOnUse"><stop offset="0" stop-color="#8ac3fa"/><stop offset="1" stop-color="#d3a6f9"/></linearGradient><path fill="url(#nFpCbXqqIBwUHrVRTC434c)" d="M47.325,19.045L36.819,11.67l-2.302-2.26c-1.017-0.999-1.736-2.261-2.075-3.646L32,3.958	l-0.442,1.806c-0.339,1.385-1.058,2.647-2.075,3.646l-2.302,2.26l-10.506,7.375c-4.091,2.871-5.111,8.499-2.289,12.623l1.291,1.887	l2.174,2.455l-1.664-2.528c-1.208-1.835-1.234-4.207-0.067-6.069L16.8,26.33l0.83-0.811c1.453-1.419,3.06-2.671,4.791-3.733	l4.572-2.805l2.519-1.68c0.816-0.544,1.518-1.243,2.066-2.058L32,14.616l0.423,0.628c0.548,0.814,1.25,1.513,2.066,2.058l2.519,1.68	l4.572,2.805c1.731,1.062,3.338,2.314,4.791,3.733l0.83,0.811l0.679,1.083c1.167,1.862,1.141,4.233-0.067,6.069l-1.664,2.528	l2.174-2.455l1.291-1.887C52.436,27.544,51.415,21.917,47.325,19.045z"/><linearGradient id="nFpCbXqqIBwUHrVRTC434d" x1="18.17" x2="18.17" y1="3.323" y2="60.572" gradientUnits="userSpaceOnUse"><stop offset="0" stop-color="#1a6dff"/><stop offset="1" stop-color="#c822ff"/></linearGradient><polygon fill="url(#nFpCbXqqIBwUHrVRTC434d)" points="18.6,41.283 17.739,41.596 17.739,42.515 18.6,42.202"/><linearGradient id="nFpCbXqqIBwUHrVRTC434e" x1="30.552" x2="30.552" y1="3.323" y2="60.572" gradientUnits="userSpaceOnUse"><stop offset="0" stop-color="#1a6dff"/><stop offset="1" stop-color="#c822ff"/></linearGradient><polygon fill="url(#nFpCbXqqIBwUHrVRTC434e)" points="30.983,43.024 30.122,43.337 30.122,44.726 30.983,44.413"/><linearGradient id="nFpCbXqqIBwUHrVRTC434f" x1="20.934" x2="20.934" y1="3.323" y2="60.572" gradientUnits="userSpaceOnUse"><stop offset="0" stop-color="#1a6dff"/><stop offset="1" stop-color="#c822ff"/></linearGradient><path fill="url(#nFpCbXqqIBwUHrVRTC434f)" d="M5.515,42.813c0.41,0.256,2.177,0.788,3.215,1.002c1.689,0.349,3.574,0.483,5.228,0.975 c3.746,1.115,7.373,3.239,10.243,5.894c0.107,0.099,0.409-0.324,0.48-0.397c2.585-2.629,8.08,1.524,8.811,4.301 c0.127,0.481,0.088,0.893-0.063,1.336c-0.306,0.897-0.793,0.981-1.294,2.004c-0.104-0.271-0.035-0.017-0.454-0.991 c-0.422-0.981-0.971-1.417-1.175-2.516c-0.346-1.87,2.753-3.806,3.967-4.886c0.822-0.731,2.065-1.771,1.858-3.006 c-0.021-0.126-0.157-0.504-0.313-0.543c-0.129-0.033-0.179,0.42-0.209,0.501c-1.107,3.006-4.537,4.401-5.491,6.681 c-0.454,1.084-0.295,1.997,0.125,2.99c0.47,1.112,1.4,1.562,1.483,3.67c0.01,0.247,0.338,0.276,0.313,0.104 c-0.141-0.973,0.487-1.993,0.94-2.839c0.421-0.788,0.661-1.41,0.772-2.109c0.16-1.002-0.091-2.005-1.315-3.215 c-1.923-1.9-4.184-3.002-6.932-2.485c-0.516,0.097-1.271,0.424-1.271,0.424s-0.454-0.366-0.713-0.57 c-1.963-1.545-3.52-2.324-5.525-3.279c-4.207-2.003-6-2.024-8.709-2.563c-0.528-0.105-1.079-0.306-1.697-0.527 c-0.194-0.069-2.127,0.038-1.955,0.099L5.515,42.813z"/><linearGradient id="nFpCbXqqIBwUHrVRTC434g" x1="31.771" x2="31.771" y1="3.323" y2="60.572" gradientUnits="userSpaceOnUse"><stop offset="0" stop-color="#1a6dff"/><stop offset="1" stop-color="#c822ff"/></linearGradient><path fill="url(#nFpCbXqqIBwUHrVRTC434g)" d="M22.943,45.88c-0.479-0.161-0.477-0.186-0.959-0.176c-1.502,0.031-2.898,0.593-4.245,1.115 c-2.171,0.841-4.977,1.63-7.08,1.381c-1.892-0.224-2.388-1.498-2.388-1.498s0.354,0.017,1.033-0.053 c2.935-0.302,5.54,0.562,8.768,2.596c0.193,0.122,0.205-0.021,0.372-0.117c3.418-1.976,8.881-1.526,11.444-0.665 c2.572,0.864,6.651,1.878,9.253,2.66c0.132,0.04,0.302-0.133,0.517-0.329c2.903-2.643,6.266-4.884,10.117-5.858 c2.309-0.584,4.645-1.042,6.938-1.695c0.485-0.138,0.979-0.734,0.152-0.499c-3.137,0.892-6.398,1.355-9.447,2.523 c-3.25,1.244-5.544,2.942-8.102,5.271c-0.137,0-0.313-0.156-0.685-0.254c-4.891-1.506-8.138-2.445-10.778-2.936 c-1.736-0.322-3.452-0.181-5.077,0.124c-0.999,0.187-2.051,0.276-2.998,0.651c-0.43,0.171-0.864,0.334-1.273,0.551 c-0.483,0.233-0.409,0.229,0.222-0.012c-0.293-0.174-0.589-0.343-0.888-0.506c-1.656-0.93-3.065-1.419-4.913-1.843 c-1.448-0.333-5.48,0.252-6.084-0.489c-0.43-0.528-0.688-0.391-0.587-0.098c0.822,2.37,2.68,3.052,5.612,2.999 c1.244-0.022,2.703-0.548,3.895-0.867c1.84-0.491,5.751-1.858,6.827-1.682c0.357,0.058,0.489,0,0.567,0L22.943,45.88z"/><linearGradient id="nFpCbXqqIBwUHrVRTC434h" x1="48.836" x2="48.836" y1="3.323" y2="60.572" gradientUnits="userSpaceOnUse"><stop offset="0" stop-color="#1a6dff"/><stop offset="1" stop-color="#c822ff"/></linearGradient><path fill="url(#nFpCbXqqIBwUHrVRTC434h)" d="M40.451,43.748c1.095-0.137,4.147,1.545,5.751,2.191c1.681,0.677,3.932,1.878,5.693,2.465 c2.473,0.824,4.599-0.586,5.849-2.778c0.047-0.083-0.224-0.34-0.391,0c-0.587,1.193-2.954-0.43-5.834,0.237 c-3.094,0.717-4.994,1.928-4.994,1.928s-0.342-0.131-0.782-0.412c-0.779-0.497-1.487-0.806-2.318-1.206 c-1.262-0.608-2.015-0.822-2.876-0.685c-0.499,0.079-0.626,0.509-0.626,0.509s1.585-0.939,6.319,2.211 c0.188,0.125,0.273-0.1,0.43-0.176c2.062-0.991,4.428-1.862,6.769-1.682c0.982,0.075,2.641,0.528,2.641,0.528 s-0.193,1.193-2.328,1.193c-1.569,0-4.065-1.591-7.023-2.758c-2.634-1.04-5.312-2.493-6.416-1.721 c-0.277,0.193-0.391,0.509-0.267,0.423L40.451,43.748z"/><linearGradient id="nFpCbXqqIBwUHrVRTC434i" x1="35.603" x2="35.603" y1="3.323" y2="60.572" gradientUnits="userSpaceOnUse"><stop offset="0" stop-color="#1a6dff"/><stop offset="1" stop-color="#c822ff"/></linearGradient><path fill="url(#nFpCbXqqIBwUHrVRTC434i)" d="M45.752,42.515c-1.624,3.345-4.35,5.017-7.805,5.13c-1.95,0.064-4.005-0.386-5.868-1.296 c0.861-0.156,1.33-0.235,2.367-0.939c0.057-0.039,0.195-0.196,0.07-0.249c-4.55-1.942-6.328-3.622-9.675-0.612 c-0.345,0.31,0.007,0.327,0.198,0.269c1.547-0.471,3.93-0.191,4.262,1.159c0.038,0.153,0.186,0.018,0.156-0.117 c-0.352-1.604-2.328-1.78-3.678-1.682c1.917-1.115,2.791-0.861,4.729-0.103c0.641,0.251,1.267,0.543,1.893,0.828 c0.31,0.143,1.046,0.527,1.046,0.527s0.391,0.313-2.015,0.763c-0.192-0.029-1.506,0.039-1.506,0.039 c2.134,1.025,4.934,1.721,7.649,1.749c4.278,0.044,7.786-2.649,8.881-5.524c0.225-0.59-0.306-1.097-0.411-0.763L45.752,42.515z"/><linearGradient id="nFpCbXqqIBwUHrVRTC434j" x1="22.511" x2="22.511" y1="3.323" y2="60.572" gradientUnits="userSpaceOnUse"><stop offset="0" stop-color="#1a6dff"/><stop offset="1" stop-color="#c822ff"/></linearGradient><path fill="url(#nFpCbXqqIBwUHrVRTC434j)" d="M24.566,42.887c-1.937-0.196-3.189,0.781-4.312,1.599c-0.42,0.306,0.112,0.367,0.478,0.298 c1.467-0.274,2.973-0.176,3.795,0.763c0.085,0.097,0.194,0.363,0.215,0.509c0.02,0.137,0.209,0.092,0.176-0.078 c-0.411-2.093-2.579-2.253-4.228-1.697c0.095,0.098,0.19,0.196,0.285,0.294c0.779-0.567,2.194-1.819,3.688-0.885 c0.156,0.098,0.213-0.56-0.02-0.743L24.566,42.887z"/><linearGradient id="nFpCbXqqIBwUHrVRTC434k" x1="36.361" x2="36.361" y1="3.323" y2="60.572" gradientUnits="userSpaceOnUse"><stop offset="0" stop-color="#1a6dff"/><stop offset="1" stop-color="#c822ff"/></linearGradient><path fill="url(#nFpCbXqqIBwUHrVRTC434k)" d="M38.416,42.887c-1.937-0.196-3.189,0.781-4.312,1.599c-0.42,0.306,0.112,0.367,0.478,0.298 c1.467-0.274,2.973-0.176,3.795,0.763c0.085,0.097,0.194,0.363,0.215,0.509c0.02,0.137,0.209,0.092,0.176-0.078 c-0.411-2.093-2.579-2.253-4.228-1.697c0.095,0.098,0.19,0.196,0.285,0.294c0.779-0.567,2.194-1.819,3.688-0.885 c0.156,0.098,0.213-0.56-0.02-0.743L38.416,42.887z"/><linearGradient id="nFpCbXqqIBwUHrVRTC434l" x1="20.083" x2="20.083" y1="3.323" y2="60.572" gradientUnits="userSpaceOnUse"><stop offset="0" stop-color="#1a6dff"/><stop offset="1" stop-color="#c822ff"/></linearGradient><path fill="url(#nFpCbXqqIBwUHrVRTC434l)" d="M20.696,41.944c0.2,0.751-0.296,1.323-0.893,1.668c-0.472,0.274-0.383-0.23-0.303-0.59 C19.542,42.833,20.443,41.628,20.696,41.944c0.138,0.171,0.773-0.19,0.693-0.29c-0.436-0.542-1.378,0.24-1.742,0.527 c-0.379,0.299-0.678,0.604-0.841,1.06c-0.072,0.201-0.176,0.756,0.128,0.83c0.519,0.125,1.156-0.295,1.559-0.57 c0.605-0.413,1.105-1.064,0.896-1.846C21.349,41.502,20.644,41.749,20.696,41.944z"/><linearGradient id="nFpCbXqqIBwUHrVRTC434m" x1="39.497" x2="39.497" y1="3.323" y2="60.572" gradientUnits="userSpaceOnUse"><stop offset="0" stop-color="#1a6dff"/><stop offset="1" stop-color="#c822ff"/></linearGradient><path fill="url(#nFpCbXqqIBwUHrVRTC434m)" d="M38.749,40.735c0.445,0.119,0.28,1.11,0.176,1.448c-0.132,0.428-0.345,0.972-0.509,1.389 c-0.061,0.155,0.254-0.161,0.333-0.274c0.132-0.188,0.4-0.242,0.542-0.422c0.108-0.137,0.612-0.751,0.925-0.771 c-0.018,0.765-0.132,1.239-0.45,1.917c-0.048,0.103,0.392-0.011,0.484-0.207c0.323-0.69,0.396-1.006,0.553-1.945 c0.008-0.05,0.09-0.405-0.059-0.411c-0.489-0.02-1.232,0.567-1.526,0.763c0.292-0.744,0.246-0.35,0.395-1.136 c0.052-0.276,0.126-0.756-0.268-0.83c-0.391-0.073-0.764,0.123-1.091,0.345c-0.171,0.116-0.077,0.165,0.044,0.057L38.749,40.735z"/><linearGradient id="nFpCbXqqIBwUHrVRTC434n" x1="11.981" x2="11.981" y1="3.323" y2="60.572" gradientUnits="userSpaceOnUse"><stop offset="0" stop-color="#1a6dff"/><stop offset="1" stop-color="#c822ff"/></linearGradient><path fill="url(#nFpCbXqqIBwUHrVRTC434n)" d="M14.835,29.323v2.279l-0.15,0.038c-0.851,0.225-1.74,0.225-2.579-0.025l-0.213-0.063	l0.075,0.25c0.225,0.826,0.238,1.703,0.013,2.541l-0.288,1.039l-0.401,1.54l-0.113,0.476c-0.551,2.316,0.814,4.657,3.092,5.321	l0.288,0.088l-1.415-0.088c-2.642-0.488-4.394-3.017-3.931-5.671l0.726-4.119c0.038-0.225,0.063-0.451,0.063-0.689l0.013-1.039	c0-0.614-0.163-1.214-0.476-1.74l-0.413-0.676l0.689,0.413c0.526,0.313,1.114,0.476,1.728,0.476l1.039-0.013	c0.225,0,0.451-0.013,0.676-0.063L14.835,29.323z"/><linearGradient id="nFpCbXqqIBwUHrVRTC434o" x1="14.815" x2="14.815" y1="3.323" y2="60.572" gradientUnits="userSpaceOnUse"><stop offset="0" stop-color="#1a6dff"/><stop offset="1" stop-color="#c822ff"/></linearGradient><path fill="url(#nFpCbXqqIBwUHrVRTC434o)" d="M13.846,42.77c1.183,0.103,2.333,0.06,3.443-0.156l-0.352-0.372	c-0.655,0.372-2.739,0.841-4.597-0.626L13.846,42.77z"/><linearGradient id="nFpCbXqqIBwUHrVRTC434p" x1="32" x2="32" y1="2.667" y2="59.337" gradientUnits="userSpaceOnUse"><stop offset="0" stop-color="#1a6dff"/><stop offset="1" stop-color="#c822ff"/></linearGradient><path fill="url(#nFpCbXqqIBwUHrVRTC434p)" d="M42.194,27.765l-6.988-4.905l-1.531-1.503c-0.677-0.664-1.155-1.504-1.38-2.425L32,17.73	l-0.294,1.201c-0.226,0.921-0.704,1.761-1.38,2.425l-1.531,1.503l-6.988,4.905c-2.721,1.91-3.4,5.653-1.522,8.397l0.859,1.255	l1.446,1.633l-1.107-1.682c-0.804-1.221-0.821-2.798-0.044-4.037l0.452-0.72l0.552-0.539c0.966-0.944,2.035-1.777,3.186-2.483	l3.041-1.866l1.676-1.117c0.543-0.362,1.01-0.827,1.374-1.369L32,24.82l0.281,0.418c0.364,0.542,0.831,1.007,1.374,1.369	l1.676,1.117l3.041,1.866c1.151,0.706,2.22,1.539,3.186,2.483l0.552,0.539l0.452,0.72c0.777,1.238,0.759,2.816-0.044,4.037	l-1.107,1.682l1.446-1.633l0.859-1.255C45.593,33.418,44.915,29.675,42.194,27.765z"/><linearGradient id="nFpCbXqqIBwUHrVRTC434q" x1="32" x2="32" y1="2.667" y2="59.337" gradientUnits="userSpaceOnUse"><stop offset="0" stop-color="#1a6dff"/><stop offset="1" stop-color="#c822ff"/></linearGradient><path fill="url(#nFpCbXqqIBwUHrVRTC434q)" d="M38.326,33.648l-4.337-3.044l-0.95-0.933c-0.42-0.412-0.717-0.934-0.857-1.505L32,27.42	l-0.183,0.746c-0.14,0.572-0.437,1.093-0.857,1.505l-0.95,0.933l-4.337,3.044c-1.689,1.185-2.11,3.508-0.945,5.211l0.533,0.779	l0.898,1.013l-0.687-1.044c-0.499-0.758-0.51-1.737-0.028-2.505l0.28-0.447l0.343-0.335c0.6-0.586,1.263-1.103,1.977-1.541	l1.887-1.158l1.04-0.693c0.337-0.225,0.627-0.513,0.853-0.849L32,31.82l0.174,0.259c0.226,0.336,0.516,0.625,0.853,0.849l1.04,0.693	l1.887,1.158c0.714,0.438,1.378,0.955,1.977,1.541l0.343,0.335l0.28,0.447c0.482,0.768,0.471,1.747-0.028,2.505l-0.687,1.044	l0.898-1.013l0.533-0.779C40.436,37.156,40.014,34.833,38.326,33.648z"/><linearGradient id="nFpCbXqqIBwUHrVRTC434r" x1="52.019" x2="52.019" y1="3.323" y2="60.572" gradientUnits="userSpaceOnUse"><stop offset="0" stop-color="#1a6dff"/><stop offset="1" stop-color="#c822ff"/></linearGradient><path fill="url(#nFpCbXqqIBwUHrVRTC434r)" d="M49.165,29.323v2.279l0.15,0.038c0.851,0.225,1.74,0.225,2.579-0.025l0.213-0.063	l-0.075,0.25c-0.225,0.826-0.238,1.703-0.013,2.541l0.288,1.039l0.401,1.54l0.113,0.476c0.551,2.316-0.814,4.657-3.092,5.321	l-0.288,0.088l1.415-0.088c2.642-0.488,4.394-3.017,3.931-5.671l-0.726-4.119c-0.038-0.225-0.063-0.451-0.063-0.689l-0.013-1.039	c0-0.614,0.163-1.214,0.476-1.74l0.413-0.676l-0.689,0.413c-0.526,0.313-1.114,0.476-1.728,0.476l-1.039-0.013	c-0.225,0-0.451-0.013-0.676-0.063L49.165,29.323z"/><linearGradient id="nFpCbXqqIBwUHrVRTC434s" x1="49.185" x2="49.185" y1="3.323" y2="60.572" gradientUnits="userSpaceOnUse"><stop offset="0" stop-color="#1a6dff"/><stop offset="1" stop-color="#c822ff"/></linearGradient><path fill="url(#nFpCbXqqIBwUHrVRTC434s)" d="M50.154,42.77c-1.183,0.103-2.333,0.06-3.443-0.156l0.352-0.372	c0.655,0.372,2.739,0.841,4.597-0.626L50.154,42.77z"/><g><linearGradient id="nFpCbXqqIBwUHrVRTC434t" x1="32" x2="32" y1="3.496" y2="58.399" gradientUnits="userSpaceOnUse"><stop offset="0" stop-color="#1a6dff"/><stop offset="1" stop-color="#c822ff"/></linearGradient><path fill="url(#nFpCbXqqIBwUHrVRTC434t)" d="M47.158,35.789c-0.488,0.366-2.179,1.538-2.179,1.538l1.998-4.396 c0.99-1.504,1.012-3.462,0.055-4.987l-0.616-0.982l-0.744-0.727c-1.398-1.365-2.951-2.575-4.616-3.597l-4.57-2.804 c-1.667-0.973-3.364-2.078-4.522-3.528c-1.523,1.76-3.392,2.893-5.072,3.912c-0.923,0.561-1.841,1.125-2.76,1.69l-1.188,0.729 c-1.664,1.021-3.217,2.231-4.615,3.597l-0.744,0.727l-0.615,0.982c-0.958,1.525-0.937,3.483,0.054,4.987l1.934,4.075 c0,0-1.824-0.953-2.372-1.346c-0.488-0.351-1.484-1.353-1.859-1.795c-0.37-0.436-1.165-1.633-1.165-1.633 c-3.115-4.553-1.977-10.836,2.539-14.007l8.032-5.633c2.796-1.936,5.687-3.938,6.453-7.067L32,1.754l1.414,3.772 c0.786,3.211,3.72,5.214,6.558,7.15c0.354,0.242,0.705,0.481,1.047,0.72c1.532,1.07,3.062,2.146,4.591,3.221l2.29,1.609 c4.516,3.171,5.654,9.454,2.539,14.007c0,0-1,1.287-1.357,1.697C48.642,34.434,47.706,35.379,47.158,35.789z M32,12.824 l1.253,1.863c0.921,1.369,2.591,2.458,4.259,3.432l4.59,2.814c1.792,1.1,3.463,2.401,4.967,3.87l0.979,0.995l0.679,1.083 c0.495,0.79,0.808,1.66,0.938,2.552c1.301-3.397,0.183-7.396-2.913-9.57l-2.292-1.61c-1.527-1.074-3.055-2.147-4.585-3.216 c-0.337-0.235-0.682-0.471-1.03-0.708c-2.591-1.769-5.48-3.741-6.846-6.792c-1.347,2.976-4.183,4.939-6.728,6.701l-7.955,5.579 c-3.152,2.214-4.278,6.218-2.979,9.615c0.13-0.891,0.442-1.762,0.938-2.551l0.827-1.268l0.83-0.811 c1.504-1.469,3.175-2.771,4.966-3.87l1.186-0.729c0.922-0.566,1.845-1.134,2.771-1.695c2.298-1.395,4.024-2.53,5.316-4.451 L32,12.824z"/></g></svg>